<?xml version="1.0"?>
<svg xmlns="http://www.w3.org/2000/svg" xmlns:xlink="http://www.w3.org/1999/xlink" version="1.1" xml:space="preserve">
	<defs>
		<symbol id="arrow-left" width="100%" height="100%" viewBox="0 0 17 11">
			<path fill-rule="evenodd" clip-rule="evenodd" d="M5.70711 9.70711C5.31658 10.0976 4.68342 10.0976 4.29289 9.70711L0.292894 5.70711C-0.0976312 5.31658 -0.0976312 4.68342 0.292894 4.29289L4.29289 0.292894C4.68342 -0.0976312 5.31658 -0.0976312 5.70711 0.292894C6.09763 0.683417 6.09763 1.31658 5.70711 1.70711L3.41421 4L15 4C15.5523 4 16 4.44771 16 5C16 5.55228 15.5523 6 15 6L3.41421 6L5.70711 8.29289C6.09763 8.68342 6.09763 9.31658 5.70711 9.70711Z" fill="currentColor" />
		</symbol>
		<symbol id="arrow-right" width="100%" height="100%" viewBox="0 0 16 10">
			<path fill-rule="evenodd" clip-rule="evenodd" d="M10.2929 9.70711C10.6834 10.0976 11.3166 10.0976 11.7071 9.70711L15.7071 5.70711C16.0976 5.31658 16.0976 4.68342 15.7071 4.29289L11.7071 0.292894C11.3166 -0.0976313 10.6834 -0.0976313 10.2929 0.292894C9.90237 0.683417 9.90237 1.31658 10.2929 1.70711L12.5858 4H1C0.4477 4 0 4.44771 0 5C0 5.55228 0.4477 6 1 6H12.5858L10.2929 8.29289C9.90237 8.68342 9.90237 9.31658 10.2929 9.70711Z" fill="currentColor" />
		</symbol>
		<symbol id="badge-contur" width="100%" height="100%" viewBox="0 0 18 17">
			<path d="M7.22222 3.66667H2.77778C1.79594 3.66667 1 4.46261 1 5.44444V13.4444C1 14.4263 1.79594 15.2222 2.77778 15.2222H15.2222C16.2041 15.2222 17 14.4263 17 13.4444V5.44444C17 4.46261 16.2041 3.66667 15.2222 3.66667H10.7778M7.22222 3.66667V2.77778C7.22222 1.79594 8.01816 1 9 1C9.98184 1 10.7778 1.79594 10.7778 2.77778V3.66667M7.22222 3.66667C7.22222 4.64851 8.01816 5.44444 9 5.44444C9.98184 5.44444 10.7778 4.64851 10.7778 3.66667M6.33333 10.7778C7.31517 10.7778 8.11111 9.98184 8.11111 9C8.11111 8.01816 7.31517 7.22222 6.33333 7.22222C5.35149 7.22222 4.55556 8.01816 4.55556 9C4.55556 9.98184 5.35149 10.7778 6.33333 10.7778ZM6.33333 10.7778C7.49442 10.7778 8.48214 11.5198 8.84822 12.5556M6.33333 10.7778C5.17225 10.7778 4.18444 11.5198 3.81836 12.5556M11.6667 8.11111H14.3333M11.6667 11.6667H13.4444" stroke="currentColor" fill="none" stroke-width="1.6" stroke-linecap="round" stroke-linejoin="round" />
		</symbol>
		<symbol id="bag" width="100%" height="100%" viewBox="0 0 14 14">
			<path fill-rule="evenodd" clip-rule="evenodd" d="M3.5 3.5V2.625C3.5 1.17525 4.67525 0 6.125 0H7.875C9.32475 0 10.5 1.17525 10.5 2.625V3.5H12.25C13.2165 3.5 14 4.2835 14 5.25V8.37442C11.8209 9.18289 9.46303 9.62495 7.00002 9.62495C4.537 9.62495 2.17907 9.18288 0 8.3744V5.25C0 4.2835 0.783502 3.5 1.75 3.5H3.5ZM5.25 2.625C5.25 2.14175 5.64175 1.75 6.125 1.75H7.875C8.35825 1.75 8.75 2.14175 8.75 2.625V3.5H5.25V2.625ZM6.125 7C6.125 6.51675 6.51675 6.125 7 6.125H7.00875C7.492 6.125 7.88375 6.51675 7.88375 7C7.88375 7.48325 7.492 7.875 7.00875 7.875H7C6.51675 7.875 6.125 7.48325 6.125 7Z" fill="currentColor" />
			<path d="M0 10.2307V12.25C0 13.2165 0.783502 14 1.75 14H12.25C13.2165 14 14 13.2165 14 12.25V10.2307C11.8013 10.9729 9.44685 11.375 7.00002 11.375C4.55317 11.375 2.19869 10.9729 0 10.2307Z" fill="currentColor" />
		</symbol>
		<symbol id="balcony-glazing" width="100%" height="100%" viewBox="0 0 15 16">
			<path d="M14.0625 1.40625V0.46875C14.0625 0.209717 13.8528 0 13.5938 0H0.46875C0.209717 0 0 0.209717 0 0.46875V1.40625C0 1.66528 0.209717 1.875 0.46875 1.875H13.5938C13.8528 1.875 14.0625 1.66528 14.0625 1.40625Z" fill="currentColor" />
			<path d="M3.75 2.8125H6.5625V5.65625H3.75V2.8125Z" fill="currentColor" />
			<path d="M7.5 6.59375H10.3125V9.40625H7.5V6.59375Z" fill="currentColor" />
			<path d="M3.75 6.59375H6.5625V9.40625H3.75V6.59375Z" fill="currentColor" />
			<path d="M3.75 10.3438H6.5625V13.1875H3.75V10.3438Z" fill="currentColor" />
			<path d="M0.9375 2.8125H2.8125V13.1875H0.9375V2.8125Z" fill="currentColor" />
			<path d="M11.25 2.8125H13.125V13.1875H11.25V2.8125Z" fill="currentColor" />
			<path d="M7.5 2.8125H10.3125V5.65625H7.5V2.8125Z" fill="currentColor" />
			<path d="M7.5 10.3438H10.3125V13.1875H7.5V10.3438Z" fill="currentColor" />
			<path d="M0 15.5312C0 15.7903 0.209717 16 0.46875 16H13.5938C13.8528 16 14.0625 15.7903 14.0625 15.5312V14.5938C14.0625 14.3347 13.8528 14.125 13.5938 14.125H0.46875C0.209717 14.125 0 14.3347 0 14.5938V15.5312Z" fill="currentColor" />
		</symbol>
		<symbol id="book-contur" width="100%" height="100%" viewBox="0 0 18 15">
			<path d="M9 2.14266V14M9 2.14266C7.96187 1.43495 6.55244 1 5 1C3.44756 1 2.03813 1.43495 1 2.14266V14C2.03813 13.2923 3.44756 12.8573 5 12.8573C6.55244 12.8573 7.96187 13.2923 9 14M9 2.14266C10.0381 1.43495 11.4476 1 13 1C14.5524 1 15.9619 1.43495 17 2.14266V14C15.9619 13.2923 14.5524 12.8573 13 12.8573C11.4476 12.8573 10.0381 13.2923 9 14" fill="none" stroke="currentColor" stroke-width="1.6" stroke-linecap="round" stroke-linejoin="round" />
		</symbol>
		<symbol id="calendar" width="100%" height="100%" viewBox="0 0 24 24">
			<path d="M2 8.99976C2 7.50437 2 6.75668 2.32154 6.19976C2.53218 5.83491 2.83515 5.53194 3.2 5.32129C3.75692 4.99976 4.50461 4.99976 6 4.99976H18C19.4954 4.99976 20.2431 4.99976 20.8 5.32129C21.1648 5.53194 21.4678 5.83491 21.6785 6.19976C22 6.75668 22 7.50437 22 8.99976C22 9.3736 22 9.56053 21.9196 9.69976C21.867 9.79097 21.7912 9.86671 21.7 9.91937C21.5608 9.99976 21.3738 9.99976 21 9.99976H3C2.62615 9.99976 2.43923 9.99976 2.3 9.91937C2.20879 9.86671 2.13305 9.79097 2.08038 9.69976C2 9.56053 2 9.3736 2 8.99976Z" fill="currentColor" />
			<path fill-rule="evenodd" clip-rule="evenodd" d="M2 17.2002C2 19.463 2 20.5944 2.70294 21.2973C3.40589 22.0002 4.53726 22.0002 6.8 22.0002H17.2C19.4627 22.0002 20.5941 22.0002 21.2971 21.2973C22 20.5944 22 19.463 22 17.2002V13.2002C22 12.6346 22 12.3517 21.8243 12.176C21.6485 12.0002 21.3657 12.0002 20.8 12.0002H3.2C2.63432 12.0002 2.35147 12.0002 2.17574 12.176C2 12.3517 2 12.6346 2 13.2002V17.2002ZM7.00039 14.9999C7.00039 14.626 7.00039 14.4391 7.08078 14.2999C7.13344 14.2086 7.20918 14.1329 7.30039 14.0802C7.43962 13.9999 7.62654 13.9999 8.00039 13.9999H10.0004C10.3742 13.9999 10.5612 13.9999 10.7004 14.0802C10.7916 14.1329 10.8673 14.2086 10.92 14.2999C11.0004 14.4391 11.0004 14.626 11.0004 14.9999C11.0004 15.3737 11.0004 15.5606 10.92 15.6999C10.8673 15.7911 10.7916 15.8668 10.7004 15.9195C10.5612 15.9999 10.3742 15.9999 10.0004 15.9999H8.00039C7.62654 15.9999 7.43962 15.9999 7.30039 15.9195C7.20918 15.8668 7.13344 15.7911 7.08078 15.6999C7.00039 15.5606 7.00039 15.3737 7.00039 14.9999ZM7.08078 18.3C7.00039 18.4393 7.00039 18.6262 7.00039 19C7.00039 19.3739 7.00039 19.5608 7.08078 19.7C7.13344 19.7913 7.20918 19.867 7.30039 19.9197C7.43962 20 7.62654 20 8.00039 20H10.0004C10.3742 20 10.5612 20 10.7004 19.9197C10.7916 19.867 10.8673 19.7913 10.92 19.7C11.0004 19.5608 11.0004 19.3739 11.0004 19C11.0004 18.6262 11.0004 18.4393 10.92 18.3C10.8673 18.2088 10.7916 18.1331 10.7004 18.0804C10.5612 18 10.3742 18 10.0004 18H8.00039C7.62654 18 7.43962 18 7.30039 18.0804C7.20918 18.1331 7.13344 18.2088 7.08078 18.3ZM13.0004 14.9999C13.0004 14.626 13.0004 14.4391 13.0808 14.2999C13.1334 14.2086 13.2092 14.1329 13.3004 14.0802C13.4396 13.9999 13.6265 13.9999 14.0004 13.9999H16.0004C16.3742 13.9999 16.5612 13.9999 16.7004 14.0802C16.7916 14.1329 16.8673 14.2086 16.92 14.2999C17.0004 14.4391 17.0004 14.626 17.0004 14.9998V14.9999V14.9999C17.0004 15.3737 17.0004 15.5606 16.92 15.6999C16.8673 15.7911 16.7916 15.8668 16.7004 15.9195C16.5612 15.9999 16.3742 15.9999 16.0004 15.9999H14.0004C13.6265 15.9999 13.4396 15.9999 13.3004 15.9195C13.2092 15.8668 13.1334 15.7911 13.0808 15.6999C13.0004 15.5606 13.0004 15.3737 13.0004 14.9999ZM13.0808 18.3C13.0004 18.4393 13.0004 18.6262 13.0004 19C13.0004 19.3739 13.0004 19.5608 13.0808 19.7C13.1334 19.7913 13.2092 19.867 13.3004 19.9197C13.4396 20 13.6265 20 14.0004 20H16.0004C16.3742 20 16.5612 20 16.7004 19.9197C16.7916 19.867 16.8673 19.7913 16.92 19.7C17.0004 19.5608 17.0004 19.3739 17.0004 19C17.0004 18.6262 17.0004 18.4393 16.92 18.3C16.8673 18.2088 16.7916 18.1331 16.7004 18.0804C16.5612 18 16.3742 18 16.0004 18H14.0004C13.6265 18 13.4396 18 13.3004 18.0804C13.2092 18.1331 13.1334 18.2088 13.0808 18.3Z" fill="currentColor" />
			<path d="M7 3L7 6" stroke="currentColor" stroke-width="2.4" stroke-linecap="round" fill="none" />
			<path d="M17 3L17 6" stroke="currentColor" stroke-width="2.4" stroke-linecap="round" fill="none" />
		</symbol>
		<symbol id="chart" width="100%" height="100%" viewBox="0 0 18 16">
			<path d="M4.09091 8.72727H0.818182C0.327273 8.72727 0 9.01818 0 9.45455V15.2727C0 15.7091 0.327273 16 0.818182 16H4.09091C4.58182 16 4.90909 15.7091 4.90909 15.2727V9.45455C4.90909 9.01818 4.58182 8.72727 4.09091 8.72727ZM17.1818 5.81818H13.9091C13.4182 5.81818 13.0909 6.10909 13.0909 6.54545V15.2727C13.0909 15.7091 13.4182 16 13.9091 16H17.1818C17.6727 16 18 15.7091 18 15.2727V6.54545C18 6.10909 17.6727 5.81818 17.1818 5.81818ZM10.6364 0H7.36364C6.87273 0 6.54545 0.290909 6.54545 0.727273V15.2727C6.54545 15.7091 6.87273 16 7.36364 16H10.6364C11.1273 16 11.4545 15.7091 11.4545 15.2727V0.727273C11.4545 0.290909 11.1273 0 10.6364 0Z" fill="currentColor" />
		</symbol>
		<symbol id="chart-1" width="100%" height="100%" viewBox="0 0 30 30">
			<path fill-rule="evenodd" clip-rule="evenodd" d="M3.59835 4.84835C2.5 5.9467 2.5 7.71447 2.5 11.25V18.75C2.5 22.2855 2.5 24.0533 3.59835 25.1517C4.6967 26.25 6.46447 26.25 10 26.25H20C23.5355 26.25 25.3033 26.25 26.4017 25.1517C27.5 24.0533 27.5 22.2855 27.5 18.75V11.25C27.5 7.71447 27.5 5.9467 26.4017 4.84835C25.3033 3.75 23.5355 3.75 20 3.75H10C6.46447 3.75 4.6967 3.75 3.59835 4.84835ZM20 10C20.6904 10 21.25 10.5596 21.25 11.25V21.25C21.25 21.9404 20.6904 22.5 20 22.5C19.3096 22.5 18.75 21.9404 18.75 21.25V11.25C18.75 10.5596 19.3096 10 20 10ZM11.25 13.75C11.25 13.0596 10.6904 12.5 10 12.5C9.30964 12.5 8.75 13.0596 8.75 13.75V21.25C8.75 21.9404 9.30964 22.5 10 22.5C10.6904 22.5 11.25 21.9404 11.25 21.25V13.75ZM16.25 16.25C16.25 15.5596 15.6904 15 15 15C14.3096 15 13.75 15.5596 13.75 16.25V21.25C13.75 21.9404 14.3096 22.5 15 22.5C15.6904 22.5 16.25 21.9404 16.25 21.25V16.25Z" fill="currentColor" />
		</symbol>
		<symbol id="chart-contur" width="100%" height="100%" viewBox="0 0 18 16">
			<path d="M0.818182 9.52727H4.09091C4.09742 9.52727 4.10347 9.52741 4.10909 9.52764V15.1996C4.10347 15.1999 4.09742 15.2 4.09091 15.2H0.818182C0.81167 15.2 0.805617 15.1999 0.8 15.1996V9.52764C0.805617 9.52741 0.81167 9.52727 0.818182 9.52727ZM4.17041 9.53796C4.17038 9.53798 4.16984 9.53776 4.16883 9.53721L4.17041 9.53796ZM4.17041 15.1893C4.17043 15.1893 4.16992 15.1896 4.16883 15.1901L4.17041 15.1893ZM0.738685 15.1893C0.738702 15.1893 0.739245 15.1895 0.74026 15.1901L0.738685 15.1893ZM0.738685 9.53796C0.738667 9.53793 0.739175 9.53766 0.74026 9.53721L0.738685 9.53796ZM13.9091 6.61818H17.1818C17.1883 6.61818 17.1944 6.61832 17.2 6.61855V15.1996C17.1944 15.1999 17.1883 15.2 17.1818 15.2H13.9091C13.9026 15.2 13.8965 15.1999 13.8909 15.1996V6.61855C13.8965 6.61832 13.9026 6.61818 13.9091 6.61818ZM17.2613 6.62887C17.2613 6.62889 17.2608 6.62867 17.2597 6.62812L17.2613 6.62887ZM17.2613 15.1893C17.2613 15.1893 17.2608 15.1896 17.2598 15.19L17.2613 15.1893ZM13.8296 15.1893C13.8296 15.1893 13.8301 15.1895 13.8312 15.1901L13.8296 15.1893ZM13.8296 6.62887C13.8296 6.62884 13.8301 6.62856 13.8312 6.62812L13.8296 6.62887ZM7.36364 0.8H10.6364C10.6429 0.8 10.6489 0.800133 10.6545 0.800369V15.1996C10.6489 15.1999 10.6429 15.2 10.6364 15.2H7.36364C7.35713 15.2 7.35107 15.1999 7.34545 15.1996V0.800369C7.35107 0.800133 7.35713 0.8 7.36364 0.8ZM10.7159 0.810685C10.7158 0.810711 10.7153 0.810488 10.7143 0.809938L10.7159 0.810685ZM10.7159 15.1893C10.7159 15.1893 10.7154 15.1896 10.7143 15.1901L10.7159 15.1893ZM7.28414 15.1893C7.28415 15.1893 7.28469 15.1895 7.28572 15.1901L7.28414 15.1893ZM7.28414 0.810685C7.28412 0.810659 7.28463 0.810384 7.28572 0.809937L7.28414 0.810685Z" stroke="currentColor" fill="none" stroke-width="1.6" stroke-linecap="round" stroke-linejoin="round" />
		</symbol>
		<symbol id="chat" width="100%" height="100%" viewBox="0 0 18 16">
			<path fill-rule="evenodd" clip-rule="evenodd" d="M18 8C18 12.4183 13.9706 16 9 16C7.32191 16 5.75108 15.5918 4.40637 14.8809L0 16L1.50559 12.4312C0.554401 11.1626 0 9.63886 0 8C0 3.58172 4.02944 0 9 0C13.9706 0 18 3.58172 18 8ZM5.625 6.85714H3.375V9.14286H5.625V6.85714ZM14.625 6.85714H12.375V9.14286H14.625V6.85714ZM7.875 6.85714H10.125V9.14286H7.875V6.85714Z" fill="currentColor" />
		</symbol>
		<symbol id="chat-contur" width="100%" height="100%" viewBox="0 0 20 18">
			<path d="M6 9H6.01M10 9H10.01M14 9H14.01M19 9C19 13.4183 14.9706 17 10 17C8.46073 17 7.01172 16.6565 5.74467 16.0511L1 17L2.39499 13.28C1.51156 12.0423 1 10.5743 1 9C1 4.58172 5.02944 1 10 1C14.9706 1 19 4.58172 19 9Z" stroke="currentColor" fill="none" stroke-width="1.6" stroke-linecap="round" stroke-linejoin="round" />
		</symbol>
		<symbol id="check" width="100%" height="100%" viewBox="0 0 14 14">
			<path fill-rule="evenodd" clip-rule="evenodd" d="M7 14C10.866 14 14 10.866 14 7C14 3.13401 10.866 0 7 0C3.13401 0 0 3.13401 0 7C0 10.866 3.13401 14 7 14ZM10.2437 5.86872C10.5854 5.52701 10.5854 4.97299 10.2437 4.63128C9.90201 4.28957 9.34799 4.28957 9.00628 4.63128L6.125 7.51256L4.99372 6.38128C4.65201 6.03957 4.09799 6.03957 3.75628 6.38128C3.41457 6.72299 3.41457 7.27701 3.75628 7.61872L5.50628 9.36872C5.84799 9.71043 6.40201 9.71043 6.74372 9.36872L10.2437 5.86872Z" fill="currentColor" />
		</symbol>
		<symbol id="clipboard-list" width="100%" height="100%" viewBox="0 0 12 16">
			<path d="M5 0C4.44772 0 4 0.447715 4 1C4 1.55228 4.44772 2 5 2H7C7.55228 2 8 1.55228 8 1C8 0.447715 7.55228 0 7 0H5Z" fill="currentColor" />
			<path fill-rule="evenodd" clip-rule="evenodd" d="M0 3C0 1.89543 0.895431 1 2 1C2 2.65685 3.34315 4 5 4H7C8.65685 4 10 2.65685 10 1C11.1046 1 12 1.89543 12 3V14C12 15.1046 11.1046 16 10 16H2C0.895431 16 0 15.1046 0 14V3ZM3 7C2.44772 7 2 7.44772 2 8C2 8.55229 2.44772 9 3 9H3.01C3.56228 9 4.01 8.55229 4.01 8C4.01 7.44772 3.56228 7 3.01 7H3ZM6 7C5.44772 7 5 7.44772 5 8C5 8.55229 5.44772 9 6 9H9C9.55228 9 10 8.55229 10 8C10 7.44772 9.55228 7 9 7H6ZM3 11C2.44772 11 2 11.4477 2 12C2 12.5523 2.44772 13 3 13H3.01C3.56228 13 4.01 12.5523 4.01 12C4.01 11.4477 3.56228 11 3.01 11H3ZM6 11C5.44772 11 5 11.4477 5 12C5 12.5523 5.44772 13 6 13H9C9.55228 13 10 12.5523 10 12C10 11.4477 9.55228 11 9 11H6Z" fill="currentColor" />
		</symbol>
		<symbol id="compas" width="100%" height="100%" viewBox="0 0 16 16">
			<path d="M7.04313 7.04281C6.6525 7.43344 6.6525 8.06656 7.04313 8.45687C7.43344 8.8475 8.06688 8.8475 8.45719 8.45687C8.84781 8.06625 8.84781 7.43313 8.45719 7.04281C8.06656 6.6525 7.43344 6.6525 7.04313 7.04281ZM7.75 0C3.46969 0 0 3.46969 0 7.75C0 12.0303 3.46969 15.5 7.75 15.5C12.0303 15.5 15.5 12.0303 15.5 7.75C15.5 3.46969 12.0303 0 7.75 0ZM11.6919 4.62656L9.63031 9.1375C9.5306 9.35565 9.35565 9.5306 9.1375 9.63031L4.62687 11.6919C4.10656 11.9297 3.57031 11.3934 3.80813 10.8731L5.87 6.36219C5.96972 6.14404 6.14466 5.96909 6.36281 5.86938L10.8734 3.80781C11.3938 3.57031 11.9297 4.10625 11.6919 4.62656Z" fill="currentColor" />
		</symbol>
		<symbol id="concierge" width="100%" height="100%" viewBox="0 0 14 16">
			<path d="M4.90144 9.48486L4.70605 9.94215L6.58842 11.7647L8.47078 9.94212L8.27539 9.48486C7.21653 10.0145 5.96228 10.0155 4.90144 9.48486Z" fill="currentColor" />
			<path d="M3.60866 10.1145L2.12671 10.4439C0.891639 10.7182 0 11.8157 0 13.0947V15.9997H4.88389V13.4519L5.92257 12.4132L3.60866 10.1145Z" fill="currentColor" />
			<path d="M9.41172 0.94128C9.08909 0.699586 8.08237 0.00989196 6.61956 0.000103728C5.11835 -0.00987274 4.08336 0.702567 3.76465 0.94128V2.35295H9.41172C9.41172 1.56864 9.41172 1.72559 9.41172 0.94128Z" fill="currentColor" />
			<path d="M3.90508 6.9993C4.27537 8.12695 5.33655 8.94129 6.58806 8.94129C7.83961 8.94129 8.90075 8.12695 9.27107 6.9993C9.62803 6.86556 9.88218 6.52143 9.88218 6.11776C9.88218 5.76943 9.69285 5.46556 9.41159 5.3028V4.62524L7.91911 6.11776H5.25702L3.76453 4.62524V5.30283C3.48328 5.46559 3.29395 5.76946 3.29395 6.11779C3.29395 6.52143 3.54813 6.86556 3.90508 6.9993Z" fill="currentColor" />
			<path d="M7.52936 5.17655L9.41172 3.29419H3.76465L5.64701 5.17655H7.52936Z" fill="currentColor" />
			<path d="M11.05 10.4441L9.56801 10.1147L5.8252 13.8419V16H13.1766V13.0949C13.1766 11.8298 12.2985 10.7214 11.05 10.4441ZM10.8237 13.647H8.94131V12.7058H10.8237V13.647Z" fill="currentColor" />
		</symbol>
		<symbol id="cross" width="100%" height="100%" viewBox="0 0 12 12">
			<path fill-rule="evenodd" clip-rule="evenodd" d="M0.292893 0.292893C0.683417 -0.0976311 1.31658 -0.0976311 1.70711 0.292893L6 4.58579L10.2929 0.292893C10.6834 -0.0976311 11.3166 -0.0976311 11.7071 0.292893C12.0976 0.683417 12.0976 1.31658 11.7071 1.70711L7.41421 6L11.7071 10.2929C12.0976 10.6834 12.0976 11.3166 11.7071 11.7071C11.3166 12.0976 10.6834 12.0976 10.2929 11.7071L6 7.41421L1.70711 11.7071C1.31658 12.0976 0.683417 12.0976 0.292893 11.7071C-0.0976311 11.3166 -0.0976311 10.6834 0.292893 10.2929L4.58579 6L0.292893 1.70711C-0.0976311 1.31658 -0.0976311 0.683417 0.292893 0.292893Z" fill="currentColor" />
		</symbol>
		<symbol id="doc" width="100%" height="100%" viewBox="0 0 12 16">
			<path fill-rule="evenodd" clip-rule="evenodd" d="M0 2C0 0.895432 0.89543 0 2 0H6.58579C7.11622 0 7.62493 0.210714 8 0.585786L11.4142 4C11.7893 4.37507 12 4.88378 12 5.41421V14C12 15.1046 11.1046 16 10 16H2C0.89543 16 0 15.1046 0 14V2ZM2 8C2 7.44772 2.44772 7 3 7H9C9.55228 7 10 7.44772 10 8C10 8.55229 9.55228 9 9 9H3C2.44772 9 2 8.55229 2 8ZM3 11C2.44772 11 2 11.4477 2 12C2 12.5523 2.44772 13 3 13H9C9.55228 13 10 12.5523 10 12C10 11.4477 9.55228 11 9 11H3Z" fill="currentColor" />
		</symbol>
		<symbol id="doc-contur" width="100%" height="100%" viewBox="0 0 14 18">
			<path d="M4.42857 8.71428H9.57143M4.42857 12.1429H9.57143M11.2857 16.4286H2.71429C1.76751 16.4286 1 15.6611 1 14.7143V2.71429C1 1.76751 1.76751 1 2.71429 1H7.5021C7.72943 1 7.94745 1.09031 8.10819 1.25105L12.7489 5.89181C12.9097 6.05255 13 6.27057 13 6.4979V14.7143C13 15.6611 12.2325 16.4286 11.2857 16.4286Z" stroke="currentColor" fill="none" stroke-width="1.6" stroke-linecap="round" stroke-linejoin="round" />
		</symbol>
		<symbol id="door" width="100%" height="100%" viewBox="0 0 12 16">
			<path d="M11.5555 16C11.3103 16 11.1111 15.8008 11.1111 15.5556V0.88887H0.88887V15.5556C0.88887 15.8008 0.689765 16 0.444435 16C0.199106 16 0 15.8007 0 15.5556V0.444435C0 0.199106 0.199106 0 0.444435 0H11.5555C11.8008 0 11.9999 0.199106 11.9999 0.444435V15.5556C12 15.8008 11.8008 16 11.5555 16ZM10.5555 1.66668V15.5556H1.44444V1.66668H10.5555ZM3.66666 8.7222C3.66666 8.32337 3.39309 8.00002 3.05553 8.00002C2.71798 8.00002 2.44441 8.32337 2.44441 8.7222C2.44441 9.12107 2.71798 9.44446 3.05553 9.44446C3.39309 9.44446 3.66666 9.12107 3.66666 8.7222Z" fill="currentColor" />
		</symbol>
		<symbol id="edit" width="100%" height="100%" viewBox="0 0 18 17">
			<path d="M11 3.10004L2.40006 11.7C2.30006 11.8 2.30009 11.8 2.30009 11.9L1.00004 15.9C0.900037 16.3 1.30011 16.7 1.70011 16.6L3.30009 16.1L5.80009 15.3C5.90009 15.3 6.00004 15.2 6.00004 15.2L14.6 6.60004L11 3.10004Z" fill="currentColor" />
			<path d="M16.7001 0.900037C15.7001 3.65973e-05 14.2001 3.65973e-05 13.2001 0.900037L12 2.10005L15.4 5.50001L16.6 4.30006C17.1 3.80006 17.3 3.20005 17.3 2.60005C17.4 2.00005 17.2001 1.30004 16.7001 0.900037Z" fill="currentColor" />
		</symbol>
		<symbol id="emoji-smile" width="100%" height="100%" viewBox="0 0 20 20">
			<path d="M12.8284 12.8284C11.2663 14.3905 8.73367 14.3905 7.17157 12.8284M7 8H7.01M13 8H13.01M19 10C19 14.9706 14.9706 19 10 19C5.02944 19 1 14.9706 1 10C1 5.02944 5.02944 1 10 1C14.9706 1 19 5.02944 19 10Z" fill="none" stroke="currentColor" stroke-width="2" stroke-linecap="round" stroke-linejoin="round" />
		</symbol>
		<symbol id="eye" width="100%" height="100%" viewBox="0 0 14 12">
			<path d="M5.18759 6C5.18759 6.46413 5.37196 6.90925 5.70015 7.23744C6.02834 7.56563 6.47346 7.75 6.93759 7.75C7.40172 7.75 7.84684 7.56563 8.17503 7.23744C8.50322 6.90925 8.68759 6.46413 8.68759 6C8.68759 5.53587 8.50322 5.09075 8.17503 4.76256C7.84684 4.43437 7.40172 4.25 6.93759 4.25C6.47346 4.25 6.02834 4.43437 5.70015 4.76256C5.37196 5.09075 5.18759 5.53587 5.18759 6ZM13.722 5.59688C12.2407 2.47656 10.0017 0.90625 7.00009 0.90625C3.99696 0.90625 1.75947 2.47656 0.278215 5.59844C0.218802 5.72425 0.187988 5.86165 0.187988 6.00078C0.187988 6.13991 0.218802 6.27732 0.278215 6.40312C1.75947 9.52344 3.99853 11.0938 7.00009 11.0938C10.0032 11.0938 12.2407 9.52344 13.722 6.40156C13.8423 6.14844 13.8423 5.85469 13.722 5.59688ZM6.93759 8.75C5.41884 8.75 4.18759 7.51875 4.18759 6C4.18759 4.48125 5.41884 3.25 6.93759 3.25C8.45634 3.25 9.68759 4.48125 9.68759 6C9.68759 7.51875 8.45634 8.75 6.93759 8.75Z" fill="currentColor" />
		</symbol>
		<symbol id="eye-contur" width="100%" height="100%" viewBox="0 0 19 14">
			<path d="M17.1741 6.11029C17.5804 6.64171 17.5804 7.35914 17.1741 7.88971C15.8944 9.56029 12.8241 13 9.23955 13C5.65498 13 2.58469 9.56029 1.30497 7.88971C1.1073 7.63526 1 7.32222 1 7C1 6.67778 1.1073 6.36474 1.30497 6.11029C2.58469 4.43971 5.65498 1 9.23955 1C12.8241 1 15.8944 4.43971 17.1741 6.11029V6.11029Z" stroke="currentColor" stroke-width="1.6" stroke-linecap="round" stroke-linejoin="round" fill="none" />
			<path d="M9.2394 9.57145C10.6596 9.57145 11.8108 8.42018 11.8108 7.00002C11.8108 5.57986 10.6596 4.42859 9.2394 4.42859C7.81924 4.42859 6.66797 5.57986 6.66797 7.00002C6.66797 8.42018 7.81924 9.57145 9.2394 9.57145Z" stroke="currentColor" stroke-width="1.6" stroke-linecap="round" stroke-linejoin="round" fill="none" />
		</symbol>
		<symbol id="filter" width="100%" height="100%" viewBox="0 0 17 18">
			<path d="M8.76354 4.64583C8.76354 6.27277 7.44465 7.59167 5.81771 7.59167C4.19077 7.59167 2.87187 6.27277 2.87187 4.64583C2.87187 3.01889 4.19077 1.7 5.81771 1.7C7.44465 1.7 8.76354 3.01889 8.76354 4.64583Z" stroke="currentColor" stroke-width="1.9" fill="none" />
			<rect x="0.516504" y="3.67861" width="3.05735" height="1.93445" rx="0.967225" fill="currentColor" stroke="currentColor" stroke-width="0.3" />
			<circle cx="11.0031" cy="13.2155" r="2.94583" transform="rotate(-180 11.0031 13.2155)" stroke="currentColor" stroke-width="1.9" fill="none" />
			<rect x="8.71328" y="3.67861" width="7.20821" height="1.93445" rx="0.967225" fill="currentColor" stroke="currentColor" stroke-width="0.3" />
			<rect x="8.10801" y="14.1827" width="7.21167" height="1.93445" rx="0.967225" transform="rotate(-180 8.10801 14.1827)" fill="currentColor" stroke="currentColor" stroke-width="0.3" />
			<rect x="16.2188" y="14.1827" width="2.62969" height="1.93445" rx="0.967224" transform="rotate(-180 16.2188 14.1827)" fill="currentColor" stroke="currentColor" stroke-width="0.3" />
		</symbol>
		<symbol id="gal-ochka" width="100%" height="100%" viewBox="0 0 12 10">
			<path d="M6.23497 8.79934C5.9649 9.16589 5.54433 9.39118 5.0896 9.41357C4.63487 9.43619 4.19445 9.25292 3.88975 8.91452L1.15929 5.88444C0.725328 5.40316 0.763876 4.66128 1.24515 4.22732C1.72689 3.79336 2.46831 3.83214 2.90227 4.31365L4.83407 6.45758C4.8627 6.48944 4.90425 6.50652 4.94695 6.50444C4.98988 6.50236 5.02912 6.4809 5.05475 6.44673L9.02546 1.06128C9.40979 0.539605 10.1443 0.428577 10.6662 0.813137C11.1876 1.1977 11.2984 1.93219 10.9139 2.45363L6.23497 8.79934Z" fill="currentColor" />
		</symbol>
		<symbol id="gal-ochka-1" width="100%" height="100%" viewBox="0 0 14 14">
			<path fill-rule="evenodd" clip-rule="evenodd" d="M7 14C10.866 14 14 10.866 14 7C14 3.13401 10.866 0 7 0C3.13401 0 0 3.13401 0 7C0 10.866 3.13401 14 7 14ZM10.2437 5.86872C10.5854 5.52701 10.5854 4.97299 10.2437 4.63128C9.90201 4.28957 9.34799 4.28957 9.00628 4.63128L6.125 7.51256L4.99372 6.38128C4.65201 6.03957 4.09799 6.03957 3.75628 6.38128C3.41457 6.72299 3.41457 7.27701 3.75628 7.61872L5.50628 9.36872C5.84799 9.71043 6.40201 9.71043 6.74372 9.36872L10.2437 5.86872Z" fill="currentColor" />
		</symbol>
		<symbol id="glazing" width="100%" height="100%" viewBox="0 0 12 16">
			<path d="M5.33334 0H0V7.46666H5.33334V0Z" fill="currentColor" />
			<path d="M5.33334 8.53345H0V16.0001H5.33334V8.53345Z" fill="currentColor" />
			<path d="M11.7337 0H6.40039V7.46666H11.7337V0Z" fill="currentColor" />
			<path d="M11.7337 8.53345H6.40039V16.0001H11.7337V8.53345Z" fill="currentColor" />
		</symbol>
		<symbol id="heart" width="100%" height="100%" viewBox="0 0 20 18">
			<path d="M2.31802 2.31802C0.56066 4.07538 0.56066 6.92462 2.31802 8.68198L10.0001 16.364L17.682 8.68198C19.4393 6.92462 19.4393 4.07538 17.682 2.31802C15.9246 0.56066 13.0754 0.56066 11.318 2.31802L10.0001 3.63609L8.68198 2.31802C6.92462 0.56066 4.07538 0.56066 2.31802 2.31802Z" fill="currentColor" stroke="currentColor" stroke-width="1.6" stroke-linecap="round" stroke-linejoin="round" />
		</symbol>
		<symbol id="heart-contur" width="100%" height="100%" viewBox="0 0 20 18">
			<path d="M2.31802 2.31802C0.56066 4.07538 0.56066 6.92462 2.31802 8.68198L10.0001 16.364L17.682 8.68198C19.4393 6.92462 19.4393 4.07538 17.682 2.31802C15.9246 0.56066 13.0754 0.56066 11.318 2.31802L10.0001 3.63609L8.68198 2.31802C6.92462 0.56066 4.07538 0.56066 2.31802 2.31802Z" fill="none" stroke="currentColor" stroke-width="1.6" stroke-linecap="round" stroke-linejoin="round" />
		</symbol>
		<symbol id="home-contur" width="100%" height="100%" viewBox="0 0 18 18">
			<path d="M1 9L2.77778 7.22222M2.77778 7.22222L9 1L15.2222 7.22222M2.77778 7.22222V16.1111C2.77778 16.602 3.17575 17 3.66667 17H6.33333M15.2222 7.22222L17 9M15.2222 7.22222V16.1111C15.2222 16.602 14.8243 17 14.3333 17H11.6667M6.33333 17C6.82425 17 7.22222 16.602 7.22222 16.1111V12.5556C7.22222 12.0646 7.62019 11.6667 8.11111 11.6667H9.88889C10.3798 11.6667 10.7778 12.0646 10.7778 12.5556V16.1111C10.7778 16.602 11.1757 17 11.6667 17M6.33333 17H11.6667" stroke="currentColor" fill="none" stroke-width="1.6" stroke-linecap="round" stroke-linejoin="round" />
		</symbol>
		<symbol id="house-1" width="100%" height="100%" viewBox="0 0 14 16">
			<path fill-rule="evenodd" clip-rule="evenodd" d="M1 2C1 0.89543 1.89543 0 3 0H11C12.1046 0 13 0.895431 13 2V14C13.5523 14 14 14.4477 14 15C14 15.5523 13.5523 16 13 16H10C9.44771 16 9 15.5523 9 15V13C9 12.4477 8.55229 12 8 12H6C5.44772 12 5 12.4477 5 13V15C5 15.5523 4.55228 16 4 16H1C0.447715 16 0 15.5523 0 15C0 14.4477 0.447715 14 1 14V2ZM4 3H6V5H4V3ZM6 7H4V9H6V7ZM8 3H10V5H8V3ZM10 7H8V9H10V7Z" fill="currentColor" />
		</symbol>
		<symbol id="i" width="100%" height="100%" viewBox="0 0 20 20">
			<path d="M11 14H10V10H9M10 6H10.01M19 10C19 14.9706 14.9706 19 10 19C5.02944 19 1 14.9706 1 10C1 5.02944 5.02944 1 10 1C14.9706 1 19 5.02944 19 10Z" stroke="currentColor" fill="none" stroke-width="2" stroke-linecap="round" stroke-linejoin="round" />
		</symbol>
		<symbol id="key" width="100%" height="100%" viewBox="0 0 24 24">
			<circle cx="8" cy="15" r="3" fill="currentColor" stroke="currentColor" stroke-width="2" />
			<path d="M18.2071 6.20711C18.5976 5.81658 18.5976 5.18342 18.2071 4.79289C17.8166 4.40237 17.1834 4.40237 16.7929 4.79289L18.2071 6.20711ZM18.2929 9.70711L19 10.4142L20.4142 9L19.7071 8.29289L18.2929 9.70711ZM16.2929 9.70711L17 10.4142L18.4142 9L17.7071 8.29289L16.2929 9.70711ZM9.29289 12.2929C8.90237 12.6834 8.90237 13.3166 9.29289 13.7071C9.68342 14.0976 10.3166 14.0976 10.7071 13.7071L9.29289 12.2929ZM15.7929 11.2071L16.5 11.9142L17.9142 10.5L17.2071 9.79289L15.7929 11.2071ZM17.2071 7.20711L18.2071 6.20711L16.7929 4.79289L15.7929 5.79289L17.2071 7.20711ZM15.7929 7.20711L18.2929 9.70711L19.7071 8.29289L17.2071 5.79289L15.7929 7.20711ZM16.2071 8.20711L17.2071 7.20711L15.7929 5.79289L14.7929 6.79289L16.2071 8.20711ZM14.7929 8.20711L16.2929 9.70711L17.7071 8.29289L16.2071 6.79289L14.7929 8.20711ZM10.7071 13.7071L15.2071 9.20711L13.7929 7.79289L9.29289 12.2929L10.7071 13.7071ZM15.2071 9.20711L16.2071 8.20711L14.7929 6.79289L13.7929 7.79289L15.2071 9.20711ZM13.7929 9.20711L15.7929 11.2071L17.2071 9.79289L15.2071 7.79289L13.7929 9.20711Z" fill="currentColor" />
		</symbol>
		<symbol id="lift" width="100%" height="100%" viewBox="0 0 16 13">
			<path d="M5.31362 0H0V12.2516H5.31362V0Z" fill="currentColor" />
			<path d="M11.5646 0H6.25098V12.2516H11.5646V0Z" fill="currentColor" />
			<path d="M14.3421 1.23706L12.6846 2.89469L13.3475 3.55769L13.8733 3.0319V4.71319H14.811V3.0319L15.3368 3.55769L15.9998 2.89469L14.3421 1.23706Z" fill="currentColor" />
			<path d="M15.3368 8.69459L14.811 9.22034V7.53906H13.8733V9.22034L13.3475 8.69459L12.6846 9.35759L14.3421 11.0152L15.9998 9.35759L15.3368 8.69459Z" fill="currentColor" />
		</symbol>
		<symbol id="lift-1" width="100%" height="100%" viewBox="0 0 16 16">
			<path d="M0 0.3125V15.6863C0 15.8588 0.139906 15.9988 0.3125 15.9988H2.01688V4.89562C2.01688 4.63675 2.22675 4.42687 2.48563 4.42687H13.5144C13.7732 4.42687 13.9831 4.63675 13.9831 4.89562V15.9988H15.6875C15.8601 15.9988 16 15.8588 16 15.6863V0.3125C16 0.139906 15.8601 0 15.6875 0H0.3125C0.139906 0 0 0.139906 0 0.3125ZM6.32281 3.16125C6.11188 3.31094 5.81906 3.26188 5.66906 3.05094L5.24281 2.45156L4.81656 3.05094C4.66625 3.26188 4.37375 3.31125 4.16281 3.16125C3.95188 3.01094 3.9025 2.71844 4.0525 2.5075L4.86062 1.37125C5.0475 1.10875 5.43781 1.10875 5.62469 1.37125L6.43281 2.5075C6.58313 2.71844 6.53375 3.01094 6.32281 3.16125ZM11.9475 1.91469L11.1394 3.05094C10.9525 3.31313 10.5622 3.31344 10.3753 3.05094L9.56719 1.91469C9.41687 1.70375 9.46625 1.41125 9.67719 1.26094C9.88813 1.11094 10.1809 1.16031 10.3309 1.37125L10.7572 1.97063L11.1834 1.37125C11.3337 1.16031 11.6263 1.11094 11.8372 1.26094C12.0481 1.41125 12.0975 1.70375 11.9475 1.91469ZM8.46875 15.9988H13.0456V5.36437H8.46875V15.9988ZM2.95438 15.9988H7.53125V5.36437H2.95438V15.9988Z" fill="currentColor" />
		</symbol>
		<symbol id="link" width="100%" height="100%" viewBox="0 0 16 16">
			<path d="M10.3272 3.1272C11.0302 2.42425 12.1699 2.42425 12.8728 3.1272C13.5758 3.83014 13.5758 4.96984 12.8728 5.67278L10.1728 8.37278C9.46988 9.07572 8.33018 9.07572 7.62724 8.37278C7.27577 8.02131 6.70592 8.02131 6.35445 8.37278C6.00298 8.72425 6.00298 9.2941 6.35445 9.64557C7.76034 11.0515 10.0397 11.0515 11.4456 9.64557L14.1456 6.94557C15.5515 5.53968 15.5515 3.26029 14.1456 1.8544C12.7397 0.448516 10.4603 0.448516 9.05445 1.8544L7.70445 3.2044C7.35298 3.55587 7.35298 4.12572 7.70445 4.4772C8.05592 4.82867 8.62577 4.82867 8.97724 4.4772L10.3272 3.1272Z" fill="currentColor" />
			<path d="M5.82726 7.62719C6.5302 6.92425 7.6699 6.92425 8.37284 7.62719C8.72431 7.97867 9.29416 7.97867 9.64563 7.62719C9.99711 7.27572 9.99711 6.70587 9.64563 6.3544C8.23975 4.94852 5.96035 4.94852 4.55446 6.3544L1.85446 9.0544C0.448577 10.4603 0.448577 12.7397 1.85446 14.1456C3.26035 15.5515 5.53975 15.5515 6.94563 14.1456L8.29563 12.7956C8.6471 12.4441 8.6471 11.8743 8.29563 11.5228C7.94416 11.1713 7.37431 11.1713 7.02284 11.5228L5.67284 12.8728C4.9699 13.5757 3.8302 13.5757 3.12726 12.8728C2.42431 12.1698 2.42431 11.0301 3.12726 10.3272L5.82726 7.62719Z" fill="currentColor" />
		</symbol>
		<symbol id="menu" width="100%" height="100%" viewBox="0 0 18 14">
			<path d="M1 1H17M1 7H17M1 13H17" fill="none" stroke="currentColor" stroke-width="2" stroke-linecap="round" stroke-linejoin="round" />
		</symbol>
		<symbol id="regroup" width="100%" height="100%" viewBox="0 0 24 24">
			<path d="M4 18L3.29289 17.2929L2.58579 18L3.29289 18.7071L4 18ZM20 13C20 12.4477 19.5523 12 19 12C18.4477 12 18 12.4477 18 13L20 13ZM7.29289 13.2929L3.29289 17.2929L4.70711 18.7071L8.70711 14.7071L7.29289 13.2929ZM3.29289 18.7071L7.29289 22.7071L8.70711 21.2929L4.70711 17.2929L3.29289 18.7071ZM4 19L15 19L15 17L4 17L4 19ZM20 14L20 13L18 13L18 14L20 14ZM15 19C17.7614 19 20 16.7614 20 14L18 14C18 15.6569 16.6569 17 15 17L15 19Z" fill="currentColor" />
			<path d="M20 6L20.7071 6.70711L21.4142 6L20.7071 5.29289L20 6ZM4 11C4 11.5523 4.44771 12 5 12C5.55229 12 6 11.5523 6 11L4 11ZM16.7071 10.7071L20.7071 6.70711L19.2929 5.29289L15.2929 9.29289L16.7071 10.7071ZM20.7071 5.29289L16.7071 1.29289L15.2929 2.70711L19.2929 6.70711L20.7071 5.29289ZM20 5L9 5L9 7L20 7L20 5ZM4 10L4 11L6 11L6 10L4 10ZM9 5C6.23858 5 4 7.23858 4 10L6 10C6 8.34314 7.34315 7 9 7L9 5Z" fill="currentColor" />
		</symbol>
		<symbol id="logout" width="100%" height="100%" viewBox="0 0 17 25">
			<path fill-rule="evenodd" clip-rule="evenodd" d="M4.00405 2.06859L9.44357 1.21381C12.6642 0.707717 14.2745 0.454671 15.3247 1.35279C16.375 2.25091 16.375 3.88096 16.375 7.14107V11.4996H9.45562L12.6559 7.49928L11.0941 6.24989L6.59413 11.8749L6.09438 12.4996L6.59413 13.1243L11.0941 18.7493L12.6559 17.4999L9.45562 13.4996H16.375V17.8581C16.375 21.1182 16.375 22.7483 15.3247 23.6464C14.2745 24.5445 12.6642 24.2915 9.44357 23.7854L4.00405 22.9306C2.39132 22.6771 1.58495 22.5504 1.10498 21.9891C0.625 21.4279 0.625 20.6116 0.625 18.9791V6.0201C0.625 4.38758 0.625 3.57132 1.10498 3.01003C1.58495 2.44874 2.39132 2.32202 4.00405 2.06859Z" fill="currentColor" />
		</symbol>
		<symbol id="wallet" width="100%" height="100%" viewBox="0 0 24 24">
			<path d="M20 5C20.5523 5 21 4.55228 21 4C21 3.44772 20.5523 3 20 3V5ZM5.50001 5L20 5V3L5.50001 3L5.50001 5ZM5.50001 10H13.5V8L5.50001 8V10ZM4.00001 6.5C4.00001 5.67157 4.67158 5 5.50001 5L5.50001 3C3.56701 3 2.00001 4.567 2.00001 6.5L4.00001 6.5ZM2.00001 6.5C2.00001 8.433 3.56701 10 5.50001 10V8C4.67158 8 4.00001 7.32843 4.00001 6.5L2.00001 6.5Z" fill="currentColor" />
			<path d="M4 12L4 6.5H2L2 12H4Z" fill="currentColor" />
			<path d="M3 8.5H2.5V9L2.5 19V19.0329C2.49998 19.4762 2.49995 19.8581 2.54107 20.1639C2.58514 20.4917 2.68451 20.8058 2.93934 21.0607L2.93934 21.0607C3.19417 21.3155 3.50835 21.4149 3.83611 21.4589C4.14193 21.5 4.52384 21.5 4.96708 21.5L5 21.5L19 21.5C19.011 21.5 19.022 21.5 19.0329 21.5C19.4762 21.5 19.8581 21.5 20.1639 21.4589C20.4917 21.4149 20.8058 21.3155 21.0607 21.0607C21.3155 20.8058 21.4149 20.4917 21.4589 20.1639C21.5 19.8581 21.5 19.4762 21.5 19.0329C21.5 19.022 21.5 19.011 21.5 19V18V17.5H21H18C16.6193 17.5 15.5 16.3807 15.5 15C15.5 13.6193 16.6193 12.5 18 12.5H21H21.5V12V11L21.5 10.9671C21.5 10.5238 21.5 10.1419 21.4589 9.8361C21.4149 9.50835 21.3155 9.19417 21.0607 8.93934C20.8058 8.68451 20.4917 8.58514 20.1639 8.54107C19.8581 8.49995 19.4762 8.49997 19.0329 8.5L19 8.5L3 8.5Z" fill="currentColor" stroke="currentColor" />
		</symbol>
		<symbol id="minus" width="100%" height="100%" viewBox="0 0 6 2">
			<path d="M5.27734 1.66406H0.792969V0.331055H5.27734V1.66406Z" fill="currentColor" />
		</symbol>
		<symbol id="no-stonks" width="100%" height="100%" viewBox="0 0 20 12">
			<path d="M11 11H19M19 11V3M19 11L11 3L7 7L1 1" stroke="currentColor" fill="none" stroke-width="2" stroke-linecap="round" stroke-linejoin="round" />
		</symbol>
		<symbol id="note" width="100%" height="100%" viewBox="0 0 18 20">
			<path d="M12 15H17L15.5951 13.5951C15.2141 13.2141 15 12.6973 15 12.1585V9C15 6.38757 13.3304 4.16509 11 3.34142V3C11 1.89543 10.1046 1 9 1C7.89543 1 7 1.89543 7 3V3.34142C4.66962 4.16509 3 6.38757 3 9V12.1585C3 12.6973 2.78595 13.2141 2.40493 13.5951L1 15H6M12 15V16C12 17.6569 10.6569 19 9 19C7.34315 19 6 17.6569 6 16V15M12 15H6" stroke="currentColor" fill="currentColor" stroke-width="1.6" stroke-linecap="round" stroke-linejoin="round" />
		</symbol>
		<symbol id="note-contur" width="100%" height="100%" viewBox="0 0 18 20">
			<path d="M12 15H17L15.5951 13.5951C15.2141 13.2141 15 12.6973 15 12.1585V9C15 6.38757 13.3304 4.16509 11 3.34142V3C11 1.89543 10.1046 1 9 1C7.89543 1 7 1.89543 7 3V3.34142C4.66962 4.16509 3 6.38757 3 9V12.1585C3 12.6973 2.78595 13.2141 2.40493 13.5951L1 15H6M12 15V16C12 17.6569 10.6569 19 9 19C7.34315 19 6 17.6569 6 16V15M12 15H6" stroke="currentColor" fill="none" stroke-width="1.6" stroke-linecap="round" stroke-linejoin="round" />
		</symbol>
		<symbol id="paperclip" width="100%" height="100%" viewBox="0 0 19 20">
			<path d="M12.1716 5L5.58579 11.5858C4.80474 12.3668 4.80474 13.6332 5.58579 14.4142C6.36684 15.1953 7.63317 15.1953 8.41421 14.4142L14.8284 7.82843C16.3905 6.26633 16.3905 3.73367 14.8284 2.17157C13.2663 0.609476 10.7337 0.609476 9.17157 2.17157L2.75736 8.75736C0.414214 11.1005 0.414214 14.8995 2.75736 17.2426C5.1005 19.5858 8.89949 19.5858 11.2426 17.2426L17.5 11" fill="none" stroke="currentColor" stroke-width="2" stroke-linecap="round" stroke-linejoin="round" />
		</symbol>
		<symbol id="parking" width="100%" height="100%" viewBox="0 0 16 16">
			<path d="M7.68155 5.21606C7.27554 5.21606 7.00777 5.25506 6.85352 5.29441V7.89898C7.02971 7.93833 7.23654 7.95121 7.52451 7.95121C8.58479 7.95121 9.23907 7.41428 9.23907 6.51173C9.23941 5.70007 8.67602 5.21606 7.68155 5.21606Z" fill="currentColor" />
			<path d="M13.7523 0H1.89528C0.848226 0 0 0.848574 0 1.89528V14.1051C0 15.1518 0.848574 16 1.89528 16H13.7523C14.7994 16 15.6473 15.1514 15.6473 14.1051V1.89528C15.6476 0.848226 14.7994 0 13.7523 0ZM14.4797 13.8011C14.4797 14.3711 14.018 14.8321 13.4487 14.8321H2.17732C1.60766 14.8321 1.14594 14.3704 1.14594 13.8011V2.2212C1.14594 1.65188 1.60766 1.19016 2.17732 1.19016H13.4484C14.018 1.19016 14.4794 1.65188 14.4794 2.2212L14.4797 13.8011Z" fill="currentColor" />
			<path d="M13.4484 1.91772H2.17738C2.00954 1.91772 1.87305 2.05352 1.87305 2.22171V13.8016C1.87305 13.9687 2.00919 14.1056 2.17738 14.1056H13.4484C13.6159 14.1056 13.7524 13.9691 13.7524 13.8016V2.22136C13.7524 2.05352 13.6162 1.91772 13.4484 1.91772ZM10.4075 8.55416C9.7275 9.1952 8.71631 9.48316 7.53799 9.48316C7.27649 9.48316 7.05259 9.46993 6.85411 9.44382V12.6062H4.89268V3.89413C5.5097 3.78932 6.36767 3.71063 7.58499 3.71063C8.81555 3.71063 9.69024 3.94636 10.2797 4.41783C10.8421 4.86249 11.2209 5.59581 11.2209 6.45936C11.2209 7.32395 10.9319 8.05727 10.4075 8.55416Z" fill="currentColor" />
		</symbol>
		<symbol id="pause" width="100%" height="100%" viewBox="0 0 6 6">
			<path d="M0 0.428572C0 0.191878 0.268629 0 0.6 0H1.8C2.13137 0 2.4 0.191878 2.4 0.428571V5.57143C2.4 5.80812 2.13137 6 1.8 6H0.6C0.268629 6 0 5.80812 0 5.57143V0.428572Z" fill="currentColor" />
			<path d="M3.6 0.428572C3.6 0.191878 3.86863 0 4.2 0H5.4C5.73137 0 6 0.191878 6 0.428571V5.57143C6 5.80812 5.73137 6 5.4 6H4.2C3.86863 6 3.6 5.80812 3.6 5.57143V0.428572Z" fill="currentColor" />
		</symbol>
		<symbol id="play" width="100%" height="100%" viewBox="0 0 47 52">
			<path d="M44.2443 21.5775L8.19476 0.660181C5.26574 -1.03853 0.780029 0.609923 0.780029 4.81147V46.636C0.780029 50.4053 4.94826 52.677 8.19476 50.7873L44.2443 29.8801C47.4601 28.0205 47.4703 23.437 44.2443 21.5775Z" fill="currentColor" />
		</symbol>
		<symbol id="plus" width="100%" height="100%" viewBox="0 0 14 14">
			<path d="M7 1V7M7 7V13M7 7H13M7 7L1 7" fill="none" stroke="currentColor" stroke-width="2" stroke-linecap="round" stroke-linejoin="round" />
		</symbol>
		<symbol id="search" width="100%" height="100%" viewBox="0 0 24 24">
			<circle r="7" transform="matrix(4.37114e-08 1 1 -4.37114e-08 11 11)" stroke="currentColor" stroke-width="2" fill="none" />
			<path d="M20 20L17 17" stroke="currentColor" stroke-width="2" stroke-linecap="round" fill="none" />
		</symbol>
		<symbol id="search-1" width="100%" height="100%" viewBox="0 0 18 18">
			<path d="M4.87876 11.9899C4.56634 12.3023 4.56634 12.8088 4.87876 13.1212C5.19118 13.4337 5.69771 13.4337 6.01013 13.1212L4.87876 11.9899ZM11.7556 8.11111C11.7556 9.14204 10.9198 9.97778 9.88889 9.97778V11.5778C11.8035 11.5778 13.3556 10.0257 13.3556 8.11111H11.7556ZM8.02222 8.11111C8.02222 7.08018 8.85796 6.24444 9.88889 6.24444V4.64444C7.9743 4.64444 6.42222 6.19652 6.42222 8.11111H8.02222ZM9.88889 6.24444C10.9198 6.24444 11.7556 7.08018 11.7556 8.11111H13.3556C13.3556 6.19652 11.8035 4.64444 9.88889 4.64444V6.24444ZM7.43759 9.43104L4.87876 11.9899L6.01013 13.1212L8.56896 10.5624L7.43759 9.43104ZM9.88889 9.97778C9.3732 9.97778 8.90763 9.76972 8.56896 9.43104L7.43759 10.5624C8.06405 11.1889 8.93182 11.5778 9.88889 11.5778V9.97778ZM8.56896 9.43104C8.23028 9.09237 8.02222 8.6268 8.02222 8.11111H6.42222C6.42222 9.06818 6.81112 9.93595 7.43759 10.5624L8.56896 9.43104ZM16.2 9C16.2 12.9765 12.9765 16.2 9 16.2V17.8C13.8601 17.8 17.8 13.8601 17.8 9H16.2ZM9 16.2C5.02355 16.2 1.8 12.9765 1.8 9H0.2C0.2 13.8601 4.13989 17.8 9 17.8V16.2ZM1.8 9C1.8 5.02355 5.02355 1.8 9 1.8V0.2C4.13989 0.2 0.2 4.13989 0.2 9H1.8ZM9 1.8C12.9765 1.8 16.2 5.02355 16.2 9H17.8C17.8 4.13989 13.8601 0.2 9 0.2V1.8Z" fill="currentColor" />
		</symbol>
		<symbol id="settings" width="100%" height="100%" viewBox="0 0 18 18">
			<path fill-rule="evenodd" clip-rule="evenodd" d="M10.4878 1.90621C10.5533 2.0332 10.5696 2.19582 10.6021 2.52108L10.6021 2.52109C10.6637 3.13673 10.6945 3.44455 10.8233 3.61344C10.9867 3.82768 11.2525 3.93778 11.5196 3.90186C11.7301 3.87354 11.9695 3.67764 12.4484 3.28585C12.7014 3.07886 12.8279 2.97537 12.964 2.93189C13.1369 2.87666 13.3239 2.88599 13.4904 2.95814C13.6215 3.01495 13.7371 3.13052 13.9682 3.36165L14.6383 4.03175C14.8695 4.26289 14.985 4.37846 15.0418 4.50956C15.114 4.67608 15.1233 4.86311 15.0681 5.03598C15.0246 5.17209 14.9211 5.29859 14.7141 5.55158C14.3223 6.03045 14.1264 6.26988 14.0981 6.48042C14.0622 6.74747 14.1723 7.01326 14.3865 7.17669C14.5554 7.30554 14.8632 7.33632 15.4789 7.39789C15.8042 7.43042 15.9668 7.44668 16.0938 7.51218C16.2551 7.59537 16.3807 7.73421 16.4475 7.90297C16.5 8.03585 16.5 8.19929 16.5 8.52618V9.47391C16.5 9.80071 16.5 9.96411 16.4475 10.097C16.3808 10.2658 16.2551 10.4047 16.0937 10.4879C15.9668 10.5533 15.8042 10.5696 15.479 10.6021C14.8635 10.6637 14.5558 10.6944 14.3869 10.8232C14.1726 10.9866 14.0624 11.2526 14.0984 11.5197C14.1267 11.7302 14.3226 11.9695 14.7142 12.4482C14.9212 12.7011 15.0246 12.8275 15.0681 12.9636C15.1234 13.1365 15.114 13.3236 15.0418 13.4902C14.985 13.6212 14.8695 13.7368 14.6384 13.9678L13.9683 14.638C13.7371 14.8692 13.6216 14.9847 13.4904 15.0415C13.3239 15.1137 13.1369 15.123 12.964 15.0678C12.8279 15.0243 12.7014 14.9208 12.4484 14.7138C11.9696 14.322 11.7302 14.1261 11.5196 14.0978C11.2526 14.0619 10.9868 14.172 10.8233 14.3862C10.6945 14.5551 10.6637 14.863 10.6021 15.4787C10.5696 15.8041 10.5533 15.9668 10.4878 16.0939C10.4046 16.2551 10.2658 16.3807 10.0971 16.4474C9.96419 16.5 9.8007 16.5 9.47372 16.5H8.52618C8.19929 16.5 8.03585 16.5 7.90297 16.4475C7.73421 16.3807 7.59537 16.2551 7.51218 16.0938C7.44668 15.9668 7.43042 15.8042 7.39789 15.4789C7.33632 14.8632 7.30554 14.5554 7.17669 14.3865C7.01326 14.1723 6.74747 14.0622 6.48043 14.0981C6.26989 14.1264 6.03044 14.3223 5.55156 14.7141L5.55155 14.7141C5.29855 14.9211 5.17205 15.0246 5.03594 15.0681C4.86307 15.1233 4.67605 15.114 4.50954 15.0419C4.37843 14.9851 4.26285 14.8695 4.03171 14.6383L3.36163 13.9683C3.13048 13.7371 3.01491 13.6215 2.9581 13.4904C2.88595 13.3239 2.87663 13.1369 2.93185 12.964C2.97533 12.8279 3.07883 12.7014 3.28583 12.4484L3.28583 12.4484C3.67763 11.9695 3.87353 11.7301 3.90185 11.5196C3.93778 11.2525 3.82768 10.9867 3.61344 10.8233C3.44455 10.6945 3.13672 10.6637 2.52107 10.6021H2.52106C2.19582 10.5696 2.0332 10.5533 1.90621 10.4878C1.74492 10.4046 1.61926 10.2658 1.55254 10.097C1.5 9.96414 1.5 9.80071 1.5 9.47383V8.52626C1.5 8.1993 1.5 8.03582 1.55256 7.90291C1.61929 7.7342 1.74491 7.59539 1.90614 7.51221C2.03316 7.44668 2.19583 7.43042 2.52117 7.39788C3.13698 7.3363 3.44489 7.30551 3.61381 7.17661C3.82796 7.01319 3.93802 6.74748 3.90215 6.4805C3.87385 6.2699 3.67789 6.03039 3.28596 5.55136C3.07887 5.29826 2.97533 5.17171 2.93185 5.03554C2.87667 4.86273 2.886 4.67578 2.9581 4.50932C3.01491 4.37816 3.13052 4.26254 3.36175 4.03132L4.03174 3.36133C4.26289 3.13018 4.37846 3.01461 4.50958 2.9578C4.67609 2.88565 4.86311 2.87632 5.03597 2.93154C5.17209 2.97502 5.29861 3.07854 5.55165 3.28557C6.03046 3.67733 6.26987 3.87321 6.48033 3.90155C6.74746 3.93752 7.01335 3.82739 7.1768 3.61306C7.30558 3.4442 7.33635 3.13646 7.3979 2.52098C7.43042 2.19582 7.44668 2.03324 7.51214 1.90628C7.59534 1.74493 7.73423 1.61924 7.90305 1.55251C8.0359 1.5 8.19929 1.5 8.52607 1.5H9.47383C9.80071 1.5 9.96414 1.5 10.097 1.55254C10.2658 1.61926 10.4046 1.74492 10.4878 1.90621ZM9 12C10.6569 12 12 10.6569 12 9C12 7.34315 10.6569 6 9 6C7.34315 6 6 7.34315 6 9C6 10.6569 7.34315 12 9 12Z" fill="currentColor" />
		</symbol>
		<symbol id="send" width="100%" height="100%" viewBox="0 0 20 20">
			<path d="M19.309 11.118C19.7325 10.9063 20 10.4735 20 9.99999C20 9.52652 19.7325 9.0937 19.309 8.88196L1.80906 0.131978C1.36569 -0.0897087 0.833206 -0.028451 0.451756 0.288126C0.0703029 0.604702 -0.0880337 1.11678 0.0481471 1.59341L1.83385 7.84338C1.98717 8.38001 2.47766 8.74998 3.03575 8.74998L8.75003 8.74998C9.44038 8.74998 10 9.30962 10 9.99997C10 10.6903 9.44038 11.25 8.75003 11.25L3.03576 11.25C2.47766 11.25 1.98718 11.6199 1.83386 12.1566L0.0481464 18.4066C-0.0880345 18.8832 0.0703021 19.3953 0.451755 19.7118C0.833205 20.0284 1.36569 20.0897 1.80906 19.868L19.309 11.118Z" fill="currentColor" />
		</symbol>
		<symbol id="share" width="100%" height="100%" viewBox="0 0 20 16">
			<path d="M11.1637 4.89684V1L15.5129 5.23809L19 8.63612L15.451 11.5182L11.1637 15V11.1869C3.63703 10.6341 1 14.8784 1 14.8784C1 12.234 1.2236 9.48968 3.35706 7.4116C5.83702 4.99408 9.42852 4.82301 11.1637 4.89684Z" stroke="currentColor" fill="none" stroke-width="1.8" stroke-linecap="round" stroke-linejoin="round" />
		</symbol>
		<symbol id="star" width="100%" height="100%" viewBox="0 0 13 12">
			<path d="M6.30946 9.94987L2.41073 12L3.15536 7.65851L0 4.58336L4.35915 3.94989L6.30946 0L8.25914 3.94989L12.6183 4.58336L9.46356 7.65851L10.2088 12L6.30946 9.94987Z" fill="currentColor" />
		</symbol>
		<symbol id="status-read" width="100%" height="100%" viewBox="0 0 16 9">
			<path fill-rule="evenodd" clip-rule="evenodd" d="M11.0117 0.175479L3.92654 7.51817L0.985313 4.51674L0.907824 4.45063C0.688982 4.29548 0.380619 4.30952 0.177436 4.49742C-0.0511458 4.7088 -0.0600504 5.06016 0.157546 5.28221L3.51587 8.70927L3.5966 8.77767C3.82476 8.93714 4.14704 8.91303 4.34666 8.70616L11.8455 0.934729L11.909 0.855814C12.056 0.63474 12.024 0.336472 11.8194 0.150106C11.5891 -0.0595548 11.2275 -0.0481954 11.0117 0.175479ZM15.0098 0.177385L7.58122 7.94881L7.51807 8.02802C7.37214 8.24976 7.40556 8.54788 7.61113 8.73331C7.84239 8.94192 8.20395 8.92891 8.4187 8.70425L15.8473 0.932824L15.9104 0.85362C16.0563 0.631878 16.0229 0.333759 15.8174 0.148329C15.5861 -0.0602796 15.2245 -0.0472711 15.0098 0.177385Z" fill="currentColor" />
		</symbol>
		<symbol id="to-right" width="100%" height="100%" viewBox="0 0 6 10">
			<path d="M4.09404 5L0.231231 1.29326C-0.0770772 0.997411 -0.0770772 0.517741 0.231231 0.221889C0.53954 -0.0739629 1.03941 -0.0739629 1.34772 0.221889L5.76877 4.46431C6.07708 4.76016 6.07708 5.23984 5.76877 5.53569L1.34772 9.77811C1.03941 10.074 0.53954 10.074 0.231231 9.77811C-0.0770772 9.48226 -0.0770772 9.00259 0.231231 8.70674L4.09404 5Z" fill="currentColor" />
		</symbol>
		<symbol id="to-right-double" width="100%" height="100%" viewBox="0 0 13 12">
			<path fill-rule="evenodd" clip-rule="evenodd" d="M0.292893 11.7071C0.683417 12.0976 1.31658 12.0976 1.70711 11.7071L6.70711 6.70711C7.09763 6.31658 7.09763 5.68342 6.70711 5.29289L1.70711 0.292894C1.31658 -0.0976307 0.683417 -0.0976306 0.292893 0.292894C-0.0976305 0.683418 -0.0976305 1.31658 0.292893 1.70711L4.58579 6L0.292893 10.2929C-0.0976305 10.6834 -0.0976305 11.3166 0.292893 11.7071ZM6.29289 11.7071C6.68342 12.0976 7.31658 12.0976 7.70711 11.7071L12.7071 6.70711C13.0976 6.31658 13.0976 5.68342 12.7071 5.29289L7.70711 0.292894C7.31658 -0.0976312 6.68342 -0.0976312 6.29289 0.292894C5.90237 0.683418 5.90237 1.31658 6.29289 1.70711L10.5858 6L6.29289 10.2929C5.90237 10.6834 5.90237 11.3166 6.29289 11.7071Z" fill="currentColor" />
		</symbol>
		<symbol id="to-left" width="100%" height="100%" viewBox="0 0 11 18">
			<path d="M3.76777 9L9.88388 2.88388C10.372 2.39573 10.372 1.60427 9.88388 1.11612C9.39573 0.627961 8.60427 0.627961 8.11612 1.11612L1.11612 8.11612C0.62796 8.60427 0.62796 9.39573 1.11612 9.88388L8.11612 16.8839C8.60427 17.372 9.39573 17.372 9.88388 16.8839C10.372 16.3957 10.372 15.6043 9.88388 15.1161L3.76777 9Z" fill="currentColor" />
		</symbol>
		<symbol id="to-left-double" width="100%" height="100%" viewBox="0 0 13 12">
			<path fill-rule="evenodd" clip-rule="evenodd" d="M12.7071 11.7071C12.3166 12.0976 11.6834 12.0976 11.2929 11.7071L6.29289 6.70711C5.90237 6.31658 5.90237 5.68342 6.29289 5.29289L11.2929 0.292894C11.6834 -0.0976307 12.3166 -0.0976306 12.7071 0.292894C13.0976 0.683418 13.0976 1.31658 12.7071 1.70711L8.41421 6L12.7071 10.2929C13.0976 10.6834 13.0976 11.3166 12.7071 11.7071ZM6.70711 11.7071C6.31658 12.0976 5.68342 12.0976 5.29289 11.7071L0.292894 6.70711C-0.0976312 6.31658 -0.0976312 5.68342 0.292894 5.29289L5.29289 0.292894C5.68342 -0.0976312 6.31658 -0.0976312 6.70711 0.292894C7.09763 0.683418 7.09763 1.31658 6.70711 1.70711L2.41421 6L6.70711 10.2929C7.09763 10.6834 7.09763 11.3166 6.70711 11.7071Z" fill="currentColor" />
		</symbol>
		<symbol id="to-down" width="100%" height="100%" viewBox="0 0 10 6">
			<path d="M5 4.09404L8.70674 0.231231C9.00259 -0.0770772 9.48226 -0.0770772 9.77811 0.231231C10.074 0.53954 10.074 1.03941 9.77811 1.34772L5.53569 5.76877C5.23983 6.07708 4.76016 6.07708 4.46431 5.76877L0.221888 1.34772C-0.0739642 1.03941 -0.0739641 0.53954 0.221888 0.231231C0.517739 -0.0770776 0.997412 -0.0770775 1.29326 0.231231L5 4.09404Z" fill="currentColor" />
		</symbol>
		<symbol id="triangle-left" width="100%" height="100%" viewBox="0 0 5 6">
			<path d="M0.499999 3.86603C-0.166668 3.48112 -0.166667 2.51888 0.5 2.13397L3.5 0.401923C4.16667 0.0170233 5 0.498149 5 1.26795L5 4.73205C5 5.50185 4.16667 5.98298 3.5 5.59808L0.499999 3.86603Z" fill="currentColor" />
		</symbol>
		<symbol id="triangle-right" width="100%" height="100%" viewBox="0 0 5 6">
			<path d="M4.5 3.86603C5.16667 3.48112 5.16667 2.51888 4.5 2.13397L1.5 0.401923C0.833332 0.0170233 2.84205e-07 0.498149 2.50556e-07 1.26795L9.91352e-08 4.73205C6.54861e-08 5.50185 0.833334 5.98298 1.5 5.59808L4.5 3.86603Z" fill="currentColor" />
		</symbol>
		<symbol id="triangle-down" width="100%" height="100%" viewBox="0 0 13 8">
			<path d="M6.26381 7.75904L1.05151 1.30252C0.629112 0.779286 1.00153 5.22028e-07 1.67399 5.5237e-07L11.2427 9.84123e-07C11.9151 1.01446e-06 12.2876 0.779285 11.8652 1.30252L6.65286 7.75904C6.55279 7.88299 6.36388 7.88299 6.26381 7.75904Z" fill="currentColor" />
		</symbol>
		<symbol id="user" width="100%" height="100%" viewBox="0 0 24 24">
			<path d="M19.6515 20.4054C20.2043 20.2902 20.5336 19.7117 20.2589 19.2183C19.6533 18.1307 18.6993 17.1749 17.4788 16.4465C15.907 15.5085 13.9812 15 12 15C10.0188 15 8.09292 15.5085 6.52112 16.4465C5.30069 17.1749 4.34666 18.1307 3.74108 19.2183C3.46638 19.7117 3.79562 20.2902 4.34843 20.4054C9.39524 21.4572 14.6047 21.4572 19.6515 20.4054Z" fill="currentColor" />
			<circle cx="12" cy="8" r="5" fill="currentColor" />
		</symbol>
		<symbol id="user-box" width="100%" height="100%" viewBox="0 0 30 30">
			<path fill-rule="evenodd" clip-rule="evenodd" d="M2.5 12.5C2.5 7.78595 2.5 5.42893 3.96447 3.96447C5.42893 2.5 7.78595 2.5 12.5 2.5H17.5C22.214 2.5 24.5711 2.5 26.0355 3.96447C27.5 5.42893 27.5 7.78595 27.5 12.5V17.5C27.5 22.214 27.5 24.5711 26.0355 26.0355C24.5711 27.5 22.214 27.5 17.5 27.5H12.5C7.78595 27.5 5.42893 27.5 3.96447 26.0355C2.5 24.5711 2.5 22.214 2.5 17.5V12.5ZM9.67334 20.5582C11.2015 19.3856 13.0738 18.75 15 18.75C16.9262 18.75 18.7985 19.3856 20.3267 20.5582C21.8548 21.7307 22.9533 23.3748 23.4519 25.2353C23.6305 25.9022 23.2348 26.5876 22.568 26.7663C21.9011 26.9449 21.2157 26.5492 21.037 25.8824C20.6809 24.5534 19.8963 23.3791 18.8048 22.5415C17.7132 21.704 16.3758 21.25 15 21.25C13.6242 21.25 12.2868 21.704 11.1952 22.5415C10.1037 23.3791 9.31906 24.5534 8.96296 25.8824C8.78429 26.5492 8.09887 26.9449 7.43203 26.7663C6.7652 26.5876 6.36947 25.9022 6.54815 25.2353C7.04668 23.3748 8.1452 21.7307 9.67334 20.5582ZM12.5 11.25C12.5 9.86929 13.6193 8.75 15 8.75C16.3807 8.75 17.5 9.86929 17.5 11.25C17.5 12.6307 16.3807 13.75 15 13.75C13.6193 13.75 12.5 12.6307 12.5 11.25ZM15 6.25C12.2386 6.25 10 8.48858 10 11.25C10 14.0114 12.2386 16.25 15 16.25C17.7614 16.25 20 14.0114 20 11.25C20 8.48858 17.7614 6.25 15 6.25Z" fill="currentColor" />
			<rect x="3.125" y="3.125" width="23.75" height="23.75" rx="4.375" stroke="currentColor" stroke-width="1.25" fill="none" />
		</symbol>
		<!--  -->
		<!--  -->
		<!--  -->
		<symbol id="lock" width="100%" height="100%" viewBox="0 0 24 24">
			<path d="M16 8V7C16 4.79086 14.2091 3 12 3V3C9.79086 3 8 4.79086 8 7V8" stroke="currentColor" stroke-width="2" stroke-linecap="round" fill="none" />
			<path fill-rule="evenodd" clip-rule="evenodd" d="M3.87868 7.87868C3 8.75736 3 10.1716 3 13V14C3 17.7712 3 19.6569 4.17157 20.8284C5.34315 22 7.22876 22 11 22H13C16.7712 22 18.6569 22 19.8284 20.8284C21 19.6569 21 17.7712 21 14V13C21 10.1716 21 8.75736 20.1213 7.87868C19.2426 7 17.8284 7 15 7H9C6.17157 7 4.75736 7 3.87868 7.87868ZM12 15C12.5523 15 13 14.5523 13 14C13 13.4477 12.5523 13 12 13C11.4477 13 11 13.4477 11 14C11 14.5523 11.4477 15 12 15ZM15 14C15 15.3062 14.1652 16.4175 13 16.8293V19H11V16.8293C9.83481 16.4175 9 15.3062 9 14C9 12.3431 10.3431 11 12 11C13.6569 11 15 12.3431 15 14Z" fill="currentColor" />
		</symbol>
		<symbol id="sun" width="100%" height="100%" viewBox="0 0 16 16">
			<circle cx="8.00065" cy="8.00016" r="2" stroke="currentColor" fill="none" stroke-width="1.33333" />
			<path d="M8 3.33333V2" stroke="currentColor" fill="none" stroke-width="1.33333" stroke-linecap="round" />
			<path d="M8 13.9998V12.6665" stroke="currentColor" fill="none" stroke-width="1.33333" stroke-linecap="round" />
			<path d="M11.2994 4.70013L12.2422 3.75732" stroke="currentColor" fill="none" stroke-width="1.33333" stroke-linecap="round" />
			<path d="M3.75641 12.2426L4.69922 11.2998" stroke="currentColor" fill="none" stroke-width="1.33333" stroke-linecap="round" />
			<path d="M12.6667 8L14 8" stroke="currentColor" fill="none" stroke-width="1.33333" stroke-linecap="round" />
			<path d="M2.00065 8L3.33398 8" stroke="currentColor" fill="none" stroke-width="1.33333" stroke-linecap="round" />
			<path d="M11.2994 11.2999L12.2422 12.2427" stroke="currentColor" fill="none" stroke-width="1.33333" stroke-linecap="round" />
			<path d="M3.75641 3.75739L4.69922 4.7002" stroke="currentColor" fill="none" stroke-width="1.33333" stroke-linecap="round" />
		</symbol>
		<symbol id="moon" width="100%" height="100%" viewBox="0 0 16 16">
			<path d="M7.6225 12.6518L7.5694 13.3164L7.6225 12.6518ZM6.47621 12.3243L7.12694 12.1794L6.47621 12.3243ZM7.95969 3.47533L7.58397 4.02603L7.95969 3.47533ZM11.9993 8.00016C11.9993 5.79102 10.2085 4.00016 7.99935 4.00016V2.66683C10.9449 2.66683 13.3327 5.05464 13.3327 8.00016H11.9993ZM7.99935 12.0002C10.2085 12.0002 11.9993 10.2093 11.9993 8.00016H13.3327C13.3327 10.9457 10.9449 13.3335 7.99935 13.3335V12.0002ZM7.67561 11.9873C7.78227 11.9958 7.89023 12.0002 7.99935 12.0002V13.3335C7.85475 13.3335 7.71135 13.3277 7.5694 13.3164L7.67561 11.9873ZM7.30996 10.8111C8.51964 10.1218 9.33285 8.82195 9.33285 7.33301H10.6662C10.6662 9.32026 9.57898 11.0527 7.97012 11.9696L7.30996 10.8111ZM9.33285 7.33301C9.33285 5.95946 8.64112 4.74729 7.58397 4.02603L8.33541 2.92462C9.74108 3.88365 10.6662 5.5002 10.6662 7.33301H9.33285ZM7.5694 13.3164C7.22963 13.2892 6.89374 13.2643 6.64303 13.2051C6.41137 13.1504 5.94233 12.9939 5.82549 12.4692L7.12694 12.1794C7.10094 12.0626 7.02894 11.9727 6.95967 11.9238C6.91178 11.89 6.89005 11.8935 6.94941 11.9075C7.0029 11.9201 7.08567 11.9332 7.21432 11.947C7.3411 11.9605 7.49076 11.9725 7.67561 11.9873L7.5694 13.3164ZM7.97012 11.9696C7.54714 12.2106 7.28679 12.3604 7.1311 12.476C7.05305 12.5339 7.05135 12.5479 7.07031 12.5204C7.10136 12.4753 7.16436 12.3474 7.12694 12.1794L5.82549 12.4692C5.76132 12.181 5.85498 11.9342 5.97243 11.7638C6.07778 11.6109 6.21822 11.4931 6.33637 11.4054C6.57308 11.2297 6.92139 11.0326 7.30996 10.8111L7.97012 11.9696ZM7.99935 4.00016C8.2995 4.00016 8.50978 3.78609 8.5705 3.56485C8.62934 3.35049 8.56409 3.08064 8.33541 2.92462L7.58397 4.02603C7.29267 3.8273 7.20935 3.48653 7.28472 3.21193C7.36198 2.93046 7.62339 2.66683 7.99935 2.66683V4.00016Z" fill="currentColor" />
			<g>
				<path d="M3.48362 6.4805L2.88175 6.76721L2.88175 6.76721L3.48362 6.4805ZM2.53398 5.73317L2.32317 6.36563L2.32317 6.36563L2.53398 5.73317ZM2.85333 5.85021L3.14004 5.24834L2.85333 5.85021ZM4.40065 6.79984L5.03311 7.01066L5.03311 7.01066L4.40065 6.79984ZM4.26548 7.14817L3.73582 6.74332L3.73582 6.74332L4.26548 7.14817ZM3.73582 7.14817L4.26548 6.74332L4.26548 6.74332L3.73582 7.14817ZM5.14798 5.85021L5.43469 6.45207L5.43469 6.45207L5.14798 5.85021ZM4.51769 6.4805L5.11955 6.76721L5.11955 6.76721L4.51769 6.4805ZM5.46732 4.93317L5.67814 4.30072L5.67814 4.30071L5.46732 4.93317ZM5.81565 5.06834L5.4108 5.598L5.4108 5.598L5.81565 5.06834ZM5.81565 5.598L5.4108 5.06834L5.4108 5.06834L5.81565 5.598ZM4.40065 3.8665L5.03311 3.65569L5.03311 3.65569L4.40065 3.8665ZM4.51769 4.18584L3.91582 4.47256L4.51769 4.18584ZM5.14798 4.81614L5.43469 4.21427L5.43469 4.21427L5.14798 4.81614ZM3.60065 3.8665L2.9682 3.65568L2.9682 3.65569L3.60065 3.8665ZM3.73582 3.51817L3.20617 3.11331V3.11331L3.73582 3.51817ZM4.26548 3.51817L4.79514 3.11331L4.79514 3.11331L4.26548 3.51817ZM2.53398 4.93317L2.32317 4.30071L2.32317 4.30072L2.53398 4.93317ZM2.85333 4.81614L3.14004 5.418L2.85333 4.81614ZM3.48362 4.18584L4.08548 4.47256L3.48362 4.18584ZM2.18565 5.06834L1.78079 4.53869H1.78079L2.18565 5.06834ZM2.18565 5.598L1.78079 6.12766L1.78079 6.12766L2.18565 5.598ZM4.23311 6.58902L4.23311 6.58901L2.96819 7.01065L2.9682 7.01066L4.23311 6.58902ZM4.23311 6.58901C4.18389 6.44137 4.14251 6.3135 4.08548 6.19378L2.88175 6.76721C2.89524 6.79552 2.90838 6.8312 2.96819 7.01065L4.23311 6.58901ZM2.32317 6.36563C2.50262 6.42544 2.5383 6.43858 2.56661 6.45207L3.14004 5.24834C3.02032 5.19131 2.89245 5.14993 2.7448 5.10072L2.32317 6.36563ZM4.08548 6.19378C3.88813 5.77951 3.55432 5.4457 3.14004 5.24834L2.56661 6.45207C2.7047 6.51785 2.81597 6.62912 2.88175 6.76721L4.08548 6.19378ZM3.7682 6.58902C3.73264 6.69568 3.71196 6.75737 3.69632 6.79898C3.68895 6.81861 3.68687 6.82239 3.68922 6.81745C3.69056 6.81463 3.70507 6.78355 3.73582 6.74332L4.79514 7.55303C4.87851 7.44395 4.92425 7.32173 4.94447 7.26793C4.97108 7.1971 5.00108 7.10674 5.03311 7.01066L3.7682 6.58902ZM2.9682 7.01066C3.00022 7.10674 3.03022 7.1971 3.05683 7.26793C3.07705 7.32173 3.12279 7.44395 3.20617 7.55303L4.26548 6.74332C4.29623 6.78355 4.31074 6.81463 4.31208 6.81745C4.31443 6.82239 4.31235 6.81861 4.30498 6.79898C4.28935 6.75737 4.26866 6.69568 4.23311 6.58902L2.9682 7.01066ZM3.73582 6.74332C3.86924 6.56878 4.13207 6.56878 4.26548 6.74332L3.20617 7.55303C3.60641 8.07665 4.39489 8.07665 4.79514 7.55303L3.73582 6.74332ZM5.2565 5.10072L5.25649 5.10072L5.67813 6.36563L5.67814 6.36563L5.2565 5.10072ZM5.25649 5.10072C5.10885 5.14993 4.98098 5.19131 4.86126 5.24834L5.43469 6.45207C5.463 6.43858 5.49868 6.42544 5.67813 6.36563L5.25649 5.10072ZM5.03311 7.01066C5.09293 6.8312 5.10606 6.79552 5.11955 6.76721L3.91582 6.19378C3.85879 6.3135 3.81741 6.44138 3.7682 6.58902L5.03311 7.01066ZM4.86126 5.24834C4.44699 5.4457 4.11318 5.77951 3.91582 6.19378L5.11955 6.76721C5.18533 6.62912 5.2966 6.51785 5.43469 6.45207L4.86126 5.24834ZM5.2565 5.56563C5.36316 5.60118 5.42485 5.62187 5.46646 5.6375C5.48609 5.64487 5.48988 5.64695 5.48493 5.6446C5.48211 5.64326 5.45103 5.62875 5.4108 5.598L6.22051 4.53869C6.11143 4.45531 5.98921 4.40957 5.93541 4.38935C5.86458 4.36274 5.77422 4.33274 5.67814 4.30072L5.2565 5.56563ZM5.67814 6.36563C5.77422 6.3336 5.86458 6.3036 5.93541 6.27699C5.98921 6.25677 6.11143 6.21103 6.22051 6.12766L5.4108 5.06834C5.45103 5.03759 5.48211 5.02308 5.48493 5.02174C5.48988 5.01939 5.48609 5.02147 5.46646 5.02884C5.42486 5.04448 5.36316 5.06516 5.2565 5.10072L5.67814 6.36563ZM5.4108 5.598C5.23626 5.46459 5.23626 5.20176 5.4108 5.06834L6.22051 6.12766C6.74413 5.72741 6.74413 4.93893 6.22051 4.53868L5.4108 5.598ZM3.7682 4.07732C3.81741 4.22497 3.85879 4.35284 3.91582 4.47256L5.11955 3.89913C5.10606 3.87082 5.09292 3.83514 5.03311 3.65569L3.7682 4.07732ZM5.67814 4.30071C5.49868 4.2409 5.463 4.22776 5.43469 4.21427L4.86126 5.418C4.98098 5.47503 5.10886 5.51641 5.2565 5.56563L5.67814 4.30071ZM3.91582 4.47256C4.11318 4.88684 4.44699 5.22064 4.86126 5.418L5.43469 4.21427C5.2966 4.14849 5.18533 4.03722 5.11955 3.89913L3.91582 4.47256ZM4.23311 4.07732C4.26866 3.97066 4.28935 3.90897 4.30498 3.86736C4.31235 3.84773 4.31443 3.84395 4.31208 3.84889C4.31074 3.85171 4.29623 3.88279 4.26548 3.92302L3.20617 3.11331C3.12279 3.22239 3.07705 3.34461 3.05683 3.39841C3.03022 3.46924 3.00022 3.55961 2.9682 3.65568L4.23311 4.07732ZM5.03311 3.65569C5.00108 3.55961 4.97108 3.46924 4.94447 3.39841C4.92425 3.34461 4.87851 3.22239 4.79514 3.11331L3.73582 3.92302C3.70507 3.88279 3.69056 3.85171 3.68922 3.84889C3.68687 3.84395 3.68895 3.84773 3.69632 3.86736C3.71196 3.90897 3.73264 3.97066 3.7682 4.07732L5.03311 3.65569ZM4.26548 3.92302C4.13207 4.09757 3.86924 4.09757 3.73582 3.92302L4.79514 3.11331C4.39489 2.58969 3.60641 2.58969 3.20617 3.11331L4.26548 3.92302ZM2.7448 5.56563C2.89245 5.51641 3.02032 5.47503 3.14004 5.418L2.56661 4.21427C2.5383 4.22776 2.50262 4.2409 2.32317 4.30071L2.7448 5.56563ZM2.9682 3.65569C2.90838 3.83514 2.89524 3.87082 2.88175 3.89913L4.08548 4.47256C4.14251 4.35284 4.18389 4.22497 4.23311 4.07732L2.9682 3.65569ZM3.14004 5.418C3.55432 5.22064 3.88813 4.88684 4.08548 4.47256L2.88175 3.89913C2.81597 4.03722 2.7047 4.14849 2.56661 4.21427L3.14004 5.418ZM2.32317 4.30072C2.22709 4.33274 2.13672 4.36274 2.0659 4.38935C2.01209 4.40957 1.88987 4.45531 1.78079 4.53869L2.5905 5.598C2.55027 5.62875 2.51919 5.64326 2.51637 5.6446C2.51143 5.64695 2.51521 5.64487 2.53484 5.6375C2.57645 5.62187 2.63814 5.60118 2.7448 5.56563L2.32317 4.30072ZM2.7448 5.10072C2.63814 5.06516 2.57645 5.04448 2.53484 5.02884C2.51521 5.02147 2.51143 5.01939 2.51637 5.02174C2.51919 5.02308 2.55027 5.03759 2.5905 5.06834L1.78079 6.12766C1.88987 6.21103 2.01209 6.25677 2.0659 6.27699C2.13672 6.3036 2.22709 6.3336 2.32317 6.36563L2.7448 5.10072ZM1.78079 4.53869C1.25717 4.93893 1.25717 5.72741 1.78079 6.12766L2.5905 5.06834C2.76505 5.20176 2.76505 5.46458 2.5905 5.598L1.78079 4.53869Z" fill="currentColor" />
			</g>
		</symbol>
		<symbol id="message" width="100%" height="100%" viewBox="0 0 28 28">
			<path fill-rule="evenodd" clip-rule="evenodd" d="M3.52055 10.4888C3.5 11.1622 3.5 11.9369 3.5 12.8332V15.1666C3.5 18.4664 3.5 20.1163 4.52513 21.1415C5.55025 22.1666 7.20017 22.1666 10.5 22.1666H17.5C20.7998 22.1666 22.4497 22.1666 23.4749 21.1415C24.5 20.1163 24.5 18.4664 24.5 15.1666V12.8333C24.5 11.9369 24.5 11.1622 24.4795 10.4888L15.0522 15.7261C14.3978 16.0897 13.6022 16.0897 12.9478 15.7261L3.52055 10.4888ZM3.74218 8.36291C3.82533 8.38372 3.90715 8.41564 3.98564 8.45924L13.9191 13.9778C13.9694 14.0058 14.0306 14.0058 14.0809 13.9778L24.0144 8.45924C24.0928 8.41564 24.1747 8.38372 24.2578 8.36292C24.1082 7.73228 23.8663 7.24979 23.4749 6.85838C22.4497 5.83325 20.7998 5.83325 17.5 5.83325H10.5C7.20017 5.83325 5.55025 5.83325 4.52513 6.85838C4.13372 7.24979 3.89175 7.73228 3.74218 8.36291Z" fill="currentColor" />
		</symbol>
		<symbol id="shield" width="100%" height="100%" viewBox="0 0 28 28">
			<path d="M15.3794 4.09061L21.4602 6.69669C21.8892 6.88053 22.1673 7.30233 22.1673 7.76903V13.8974C22.1673 16.1581 21.0756 18.2796 19.236 19.5935L15.3569 22.3643C14.5456 22.9438 13.4557 22.9438 12.6444 22.3643L8.76532 19.5935C6.92574 18.2796 5.83398 16.1581 5.83398 13.8974V7.76903C5.83398 7.30233 6.11211 6.88053 6.54108 6.69669L12.6219 4.09061C13.5024 3.71329 14.4989 3.71329 15.3794 4.09061Z" fill="currentColor" />
		</symbol>
		<symbol id="check-round" width="100%" height="100%" viewBox="0 0 28 28">
			<path fill-rule="evenodd" clip-rule="evenodd" d="M14 24.5C19.799 24.5 24.5 19.799 24.5 14C24.5 8.20101 19.799 3.5 14 3.5C8.20101 3.5 3.5 8.20101 3.5 14C3.5 19.799 8.20101 24.5 14 24.5ZM19.4349 11.1402C19.7885 10.7159 19.7312 10.0853 19.3069 9.73178C18.8826 9.37821 18.252 9.43554 17.8985 9.85982L13.7593 14.8268C13.3443 15.3249 13.0982 15.6167 12.8969 15.7997C12.8317 15.859 12.7877 15.8912 12.7612 15.9081C12.7332 15.8937 12.6864 15.8656 12.6161 15.8124C12.3992 15.6484 12.1276 15.38 11.6692 14.9217L10.0405 13.2929C9.64996 12.9024 9.01679 12.9024 8.62627 13.2929C8.23574 13.6834 8.23574 14.3166 8.62627 14.7071L10.255 16.3359L10.2984 16.3793L10.2984 16.3793C10.6983 16.7793 11.0686 17.1496 11.4099 17.4077C11.7864 17.6924 12.2569 17.943 12.8522 17.916C13.4475 17.889 13.8934 17.5969 14.2427 17.2792C14.5592 16.9913 14.8944 16.589 15.2564 16.1544L15.2564 16.1544L15.2957 16.1072L19.4349 11.1402ZM12.7287 15.925C12.7289 15.9246 12.732 15.9231 12.7378 15.9215C12.7315 15.9246 12.7286 15.9254 12.7287 15.925ZM12.7857 15.9194C12.7916 15.9204 12.7948 15.9216 12.795 15.922C12.7951 15.9224 12.7922 15.9219 12.7857 15.9194Z" fill="currentColor" />
		</symbol>
		<symbol id="circle" width="100%" height="100%" viewBox="0 0 24 24">
			<circle cx="12" cy="12" r="9" fill="currentColor" />
		</symbol>
		<symbol id="phone" width="100%" height="100%" viewBox="0 0 24 24">
			<path d="M6.67962 3.32038L7.29289 2.70711C7.68342 2.31658 8.31658 2.31658 8.70711 2.70711L11.2929 5.29289C11.6834 5.68342 11.6834 6.31658 11.2929 6.70711L9.50048 8.49952C9.2016 8.7984 9.1275 9.255 9.31653 9.63307C10.4093 11.8186 12.1814 13.5907 14.3669 14.6835C14.745 14.8725 15.2016 14.7984 15.5005 14.4995L17.2929 12.7071C17.6834 12.3166 18.3166 12.3166 18.7071 12.7071L21.2929 15.2929C21.6834 15.6834 21.6834 16.3166 21.2929 16.7071L20.6796 17.3204C18.5683 19.4317 15.2257 19.6693 12.837 17.8777L11.6286 16.9714C9.88504 15.6638 8.33622 14.115 7.02857 12.3714L6.12226 11.163C4.33072 8.7743 4.56827 5.43173 6.67962 3.32038Z" fill="currentColor" />
		</symbol>
		<symbol id="save" width="100%" height="100%" viewBox="0 0 18 18">
			<path fill-rule="evenodd" clip-rule="evenodd" d="M2.25 8.25C2.25 5.42157 2.25 4.00736 3.12868 3.12868C4.00736 2.25 5.42157 2.25 8.25 2.25H11.0931C11.9106 2.25 12.3194 2.25 12.6869 2.40224C13.0545 2.55448 13.3435 2.84351 13.9216 3.42157L14.5784 4.07843C15.1565 4.65649 15.4455 4.94552 15.5978 5.31306C15.75 5.6806 15.75 6.08935 15.75 6.90685V9.75C15.75 12.5784 15.75 13.9926 14.8713 14.8713C14.4245 15.3181 13.8393 15.5377 13 15.6457V14.25L13 14.1884C13.0001 13.5343 13.0001 12.9465 12.9362 12.4708C12.8663 11.9515 12.7042 11.4187 12.2678 10.9822C11.8313 10.5458 11.2985 10.3837 10.7792 10.3138C10.3035 10.2499 9.71573 10.2499 9.06161 10.25L9 10.25H8.25L8.18839 10.25C7.53427 10.2499 6.94655 10.2499 6.47084 10.3138C5.95149 10.3837 5.41867 10.5458 4.98223 10.9822C4.54579 11.4187 4.38366 11.9515 4.31383 12.4708C4.24988 12.9465 4.24993 13.5343 4.25 14.1884L4.25 14.25V15.4987C3.79062 15.3686 3.42848 15.1711 3.12868 14.8713C2.25 13.9926 2.25 12.5784 2.25 9.75V8.25ZM11 14.25V15.7464C10.617 15.75 10.2015 15.75 9.75 15.75H8.25C7.4859 15.75 6.825 15.75 6.25 15.7327V14.25C6.25 13.5146 6.25212 13.0637 6.296 12.7373C6.33457 12.4505 6.38942 12.4026 6.39592 12.3969L6.39645 12.3964L6.39692 12.3959C6.4026 12.3894 6.45049 12.3346 6.73734 12.296C7.06369 12.2521 7.51462 12.25 8.25 12.25H9C9.73538 12.25 10.1863 12.2521 10.5127 12.296C10.7995 12.3346 10.8474 12.3894 10.8531 12.3959L10.8536 12.3964L10.8541 12.3969C10.8606 12.4026 10.9154 12.4505 10.954 12.7373C10.9979 13.0637 11 13.5146 11 14.25ZM5.25 5C4.69772 5 4.25 5.44772 4.25 6C4.25 6.55228 4.69772 7 5.25 7H9C9.55228 7 10 6.55228 10 6C10 5.44772 9.55228 5 9 5H5.25Z" fill="currentColor" />
		</symbol>
		<symbol id="shield-check" width="100%" height="100%" viewBox="0 0 22 26">
			<path fill-rule="evenodd" clip-rule="evenodd" d="M20.5909 4.60905L12.7726 1.25838C11.6407 0.773249 10.3593 0.773249 9.22736 1.25838L1.40912 4.60905C0.857596 4.84542 0.5 5.38773 0.5 5.98777V13.8671C0.5 16.7737 1.90369 19.5013 4.26886 21.1907L9.25628 24.7532C10.2994 25.4982 11.7006 25.4982 12.7437 24.7532L17.7311 21.1907C20.0963 19.5013 21.5 16.7737 21.5 13.8671V5.98777C21.5 5.38773 21.1424 4.84542 20.5909 4.60905ZM16.6707 10.4363C17.1882 9.78941 17.0833 8.84547 16.4364 8.32796C15.7895 7.81044 14.8456 7.91533 14.3281 8.56222L9.37499 14.7536L7.56003 12.9386C6.97424 12.3528 6.02449 12.3528 5.43871 12.9386C4.85292 13.5244 4.85292 14.4741 5.43871 15.0599L7.84619 17.4674C8.79444 18.4157 10.3564 18.3291 11.1941 17.282L16.6707 10.4363Z" fill="currentColor" />
		</symbol>
		<symbol id="microphone" width="100%" height="100%" viewBox="0 0 30 30">
			<rect x="10" y="2.5" width="10" height="16.25" rx="5" fill="currentColor" />
			<path d="M6.25 13.75C6.25 16.0706 7.17187 18.2962 8.81282 19.9372C10.4538 21.5781 12.6794 22.5 15 22.5C17.3206 22.5 19.5462 21.5781 21.1872 19.9372C22.8281 18.2962 23.75 16.0706 23.75 13.75" stroke="currentColor" stroke-width="2.5" stroke-linecap="round" stroke-linejoin="round" fill="none" />
			<path d="M15 26.25V23.75" stroke="currentColor" stroke-width="2.5" stroke-linecap="round" stroke-linejoin="round" fill="none" />
		</symbol>
		<symbol id="diamond" width="100%" height="100%" viewBox="0 0 30 30">
			<path fill-rule="evenodd" clip-rule="evenodd" d="M10.758 3.75H10.0193C8.20405 3.75 7.29642 3.75 6.62808 4.25413C5.95974 4.75826 5.7104 5.63097 5.21171 7.37639L4.46201 10.0003H9.58604L10.758 3.75ZM3.89453 12.4053C3.8974 12.4261 3.90096 12.4468 3.90523 12.4675C3.96738 12.7684 4.17027 13.0163 4.57605 13.5123L11.7592 22.2917L9.61733 12.5003H4.37345C4.20379 12.5003 4.04203 12.4665 3.89453 12.4053ZM18.2382 22.2896L25.4196 13.5123C25.8254 13.0163 26.0282 12.7684 26.0904 12.4675C26.0946 12.447 26.0982 12.4265 26.101 12.4058C25.9539 12.4667 25.7926 12.5003 25.6234 12.5003H20.3796L18.2382 22.2896ZM25.5336 10.0003L24.7839 7.37639C24.2852 5.63097 24.0359 4.75826 23.3676 4.25413C22.6992 3.75 21.7916 3.75 19.9763 3.75H19.2389L20.4109 10.0003H25.5336ZM16.6954 3.75H13.3015L12.1296 10.0003H17.8673L16.6954 3.75ZM14.9984 25.4009L12.1764 12.5003H17.8205L14.9984 25.4009Z" fill="currentColor" />
		</symbol>
		<symbol id="user-plus" width="100%" height="100%" viewBox="0 0 30 30">
			<path fill-rule="evenodd" clip-rule="evenodd" d="M16.656 18.8453C16.1102 18.7821 15.5568 18.75 14.9998 18.75C12.5233 18.75 10.116 19.3856 8.15122 20.5582C6.62568 21.4686 5.43314 22.6633 4.67617 24.0229C4.3328 24.6396 4.74434 25.3627 5.43536 25.5067C9.82079 26.4207 14.3045 26.6993 18.7498 26.3425V26.25H17.4998C15.4287 26.25 13.7498 24.5711 13.7498 22.5C13.7498 20.7191 14.9913 19.2281 16.656 18.8453Z" fill="currentColor" />
			<path d="M22.5 17.5L22.5 27.5" stroke="currentColor" stroke-width="3.125" stroke-linecap="round" fill="none" />
			<path d="M27.5 22.5L17.5 22.5" stroke="currentColor" stroke-width="3.125" stroke-linecap="round" fill="none" />
			<circle cx="15" cy="10" r="6.25" fill="currentColor" />
		</symbol>
		<symbol id="settings-1" width="100%" height="100%" viewBox="0 0 30 30">
			<path fill-rule="evenodd" clip-rule="evenodd" d="M15.0007 1.85547C14.1789 1.85547 13.464 2.38244 12.0341 3.43639L9.88293 5.02196C9.65767 5.188 9.54504 5.27101 9.42412 5.34083C9.3032 5.41064 9.175 5.46667 8.91858 5.57873L8.91858 5.57873L6.46986 6.64889L6.46986 6.64889C4.84217 7.36023 4.02833 7.7159 3.61743 8.4276C3.20653 9.1393 3.30543 10.0219 3.50323 11.7872L3.80081 14.443C3.83197 14.7211 3.84755 14.8601 3.84755 14.9997C3.84755 15.1394 3.83197 15.2784 3.80081 15.5565L3.50323 18.2122C3.30543 19.9775 3.20653 20.8602 3.61743 21.5719C4.02833 22.2836 4.84216 22.6392 6.46984 23.3506L6.46986 23.3506L8.91858 24.4207C9.17499 24.5328 9.3032 24.5888 9.42412 24.6586C9.54504 24.7285 9.65767 24.8115 9.88293 24.9775L12.0341 26.5631C13.464 27.617 14.1789 28.144 15.0007 28.144C15.8225 28.144 16.5374 27.617 17.9673 26.5631L20.1185 24.9775L20.1185 24.9774C20.3437 24.8115 20.4564 24.7284 20.5773 24.6586C20.6982 24.5888 20.8264 24.5328 21.0828 24.4207L23.5315 23.3506C25.1592 22.6392 25.9731 22.2836 26.384 21.5719C26.7949 20.8602 26.696 19.9775 26.4982 18.2122L26.2006 15.5565C26.1694 15.2784 26.1538 15.1394 26.1538 14.9997C26.1538 14.8601 26.1694 14.7211 26.2006 14.443L26.4982 11.7872C26.696 10.0219 26.7949 9.1393 26.384 8.4276C25.9731 7.7159 25.1592 7.36023 23.5315 6.64889L21.0828 5.57873L21.0828 5.57872C20.8264 5.46667 20.6982 5.41064 20.5773 5.34083C20.4564 5.27102 20.3437 5.18801 20.1185 5.022L20.1185 5.02196L17.9673 3.43639C16.5374 2.38244 15.8225 1.85547 15.0007 1.85547ZM15.0007 19.9997C17.7621 19.9997 20.0007 17.7612 20.0007 14.9997C20.0007 12.2383 17.7621 9.99973 15.0007 9.99973C12.2393 9.99973 10.0007 12.2383 10.0007 14.9997C10.0007 17.7612 12.2393 19.9997 15.0007 19.9997Z" fill="currentColor" />
		</symbol>
		<symbol id="send-1" width="100%" height="100%" viewBox="0 0 23 23">
			<path fill-rule="evenodd" clip-rule="evenodd" d="M8.85601 11.9521L5.82278 10.941C2.1753 9.72515 0.351562 9.11724 0.351562 8.00006C0.351562 6.88289 2.1753 6.27497 5.82279 5.05915L18.1182 0.960675C20.6847 0.105184 21.9679 -0.322562 22.6453 0.354813C23.3227 1.03219 22.8949 2.31543 22.0394 4.8819L17.9409 17.1773C16.7251 20.8248 16.1172 22.6485 15 22.6485C13.8829 22.6485 13.2749 20.8248 12.0591 17.1773L11.048 14.1441L17.596 7.59608C18.2014 6.99077 18.2014 6.00936 17.596 5.40405C16.9907 4.79874 16.0093 4.79874 15.404 5.40405L8.85601 11.9521Z" fill="currentColor" />
		</symbol>
		<symbol id="lock-1" width="100%" height="100%" viewBox="0 0 20 20">
			<path d="M13.3327 6.66667V5.83333C13.3327 3.99239 11.8403 2.5 9.99935 2.5V2.5C8.1584 2.5 6.66602 3.99239 6.66602 5.83333V6.66667" stroke="currentColor" stroke-width="1.33333" stroke-linecap="round" fill="none" />
			<path fill-rule="evenodd" clip-rule="evenodd" d="M3.23223 6.56426C2.5 7.2965 2.5 8.47501 2.5 10.832V11.6654C2.5 14.8081 2.5 16.3794 3.47631 17.3557C4.45262 18.332 6.02397 18.332 9.16667 18.332H10.8333C13.976 18.332 15.5474 18.332 16.5237 17.3557C17.5 16.3794 17.5 14.8081 17.5 11.6654V10.832C17.5 8.47501 17.5 7.2965 16.7678 6.56426C16.0355 5.83203 14.857 5.83203 12.5 5.83203H7.5C5.14298 5.83203 3.96447 5.83203 3.23223 6.56426ZM10 12.4993C10.4602 12.4993 10.8333 12.1263 10.8333 11.666C10.8333 11.2058 10.4602 10.8327 10 10.8327C9.53976 10.8327 9.16667 11.2058 9.16667 11.666C9.16667 12.1263 9.53976 12.4993 10 12.4993ZM12.5 11.666C12.5 12.7545 11.8043 13.6806 10.8333 14.0238V15.8327H9.16667V14.0238C8.19567 13.6806 7.5 12.7545 7.5 11.666C7.5 10.2853 8.61929 9.16602 10 9.16602C11.3807 9.16602 12.5 10.2853 12.5 11.666Z" fill="currentColor" />
		</symbol>
	</defs>
</svg>
